<?xml version="1.0" encoding="utf-8"?>
<!-- Generator: Adobe Illustrator 17.1.0, SVG Export Plug-In . SVG Version: 6.00 Build 0)  -->
<svg version="1.2" baseProfile="tiny" id="圖層_1"
	 xmlns="http://www.w3.org/2000/svg" xmlns:xlink="http://www.w3.org/1999/xlink" x="0px" y="0px" viewBox="0 0 346 226"
	 xml:space="preserve">
<g>
	<g>
		<path fill="#FFFFFF" d="M36.3,39.6c-0.7-0.5-2.2-1.4-3.2-1.9l1.5-2.2c1,0.4,2.5,1.2,3.3,1.7L36.3,39.6z M38.7,42.1
			c-0.8,2.1-1.7,4.3-2.7,6.2l-2.6-1.7c0.8-1.5,2-3.9,2.9-6.2L38.7,42.1z M48.6,45c1.2,0.7,2.6,1.5,3.4,2.1l-2.4,1.7
			c-0.9-0.8-2.8-2-4.2-2.8l1.4-1h-4.5l2.2,0.9c-1.3,1.1-3.4,2.2-5.1,2.8c-0.5-0.6-1.6-1.6-2.2-2.1c1.5-0.4,3.2-1,4.2-1.6h-2.2v-7.6
			h4.3v-0.7h-3.3v-1.5h-1.6v-2.7l-1.2,1.7c-0.7-0.6-2.1-1.4-3.2-2l1.6-2.1c0.8,0.4,2,1,2.8,1.5v-0.4h4.6c-0.1-0.4-0.3-0.8-0.4-1.2
			l3-0.4c0.2,0.5,0.4,1.1,0.6,1.6h5.1v4h-1.7v1.5h-3.5v0.7h4.5V45H48.6z M41.3,33.6v0.9h7.5v-0.9H41.3z M41.8,40.2h1.7v-0.7h-1.7
			V40.2z M41.8,42.9h1.7v-0.7h-1.7V42.9z M46.3,39.5v0.7h1.8v-0.7H46.3z M48.1,42.2h-1.8v0.7h1.8V42.2z"/>
		<path fill="#FFFFFF" d="M67.7,45.3c1.7,0.5,3.4,1.1,4.7,1.6l-2.6,2c-1.6-0.7-4.4-1.7-6.5-2.3l1.8-1.3h-5l1.6,1.2
			c-1.6,0.9-4.2,1.9-6.2,2.4c-0.5-0.6-1.5-1.5-2.2-2.1c1.5-0.3,3.3-0.9,4.6-1.5h-2.7v-9.1h15v9.1H67.7z M69.5,35.7H56.1v-5.3h13.4
			V35.7z M58.1,38.7h9v-0.5h-9V38.7z M58.1,41h9v-0.5h-9V41z M58.1,43.4h9v-0.5h-9V43.4z M66.4,32.6H59v0.9h7.3V32.6z"/>
		<path fill="#FFFFFF" d="M82,30.7h2.3l-4.4,19.9h-2.3L82,30.7z"/>
		<path fill="#FFFFFF" d="M108.1,43.9c-0.8,0.6-1.8,1.1-2.6,1.5c1,0.4,2.2,0.7,3.6,0.9c-0.5,0.5-1.2,1.6-1.6,2.3
			c-4.1-0.8-6.5-2.5-8-5.6c-0.7,0.6-1.6,1.1-2.5,1.5V46l3.2-0.6c-0.1,0.6-0.2,1.6-0.2,2.2c-4.5,1-5.2,1.2-5.7,1.5l0-0.3
			c-0.2-0.6-0.6-1.4-0.8-1.7c0.3-0.3,0.8-0.7,0.9-1.6c-0.9,0.3-1.9,0.5-2.8,0.6c-0.3-0.6-1-1.5-1.5-2.1c1.9-0.2,3.8-0.6,5.4-1.2
			h-5.1v-2.3h7.9c-0.1-0.3-0.2-0.6-0.3-0.8h-0.6c-0.1-0.5-0.4-1.2-0.7-1.6c0.3,0,0.8,0,0.9,0c0.2,0,0.2,0,0.2-0.2v-0.5h-1.1v2.8
			h-2.5v-2.8h-1.1v2.4h-2.2v-4.1h3.3v-0.5h-3.9v-1.9h1.2c-0.4-0.3-1-0.6-1.3-0.8c0.7-0.7,1.2-1.8,1.5-2.8l2.1,0.5
			c-0.1,0.2-0.2,0.5-0.3,0.7h0.7v-1.2h2.5v1.2h3.2v1.8h-3.2v0.5h3.6v1.9h-3.6v0.5h3.4V38c0,0.5-0.1,0.9-0.2,1.2l0.7-0.2
			c0.3,0.5,0.6,1.1,0.8,1.7h7.2v2.3h-1.9L108.1,43.9z M94.4,33.4v-0.5h-1.7c-0.1,0.2-0.2,0.4-0.4,0.5H94.4z M103.9,37.5h-2.6v-6.7
			h2.6V37.5z M102.2,42.9c0.3,0.5,0.7,0.9,1.2,1.3c0.7-0.4,1.4-0.8,2.1-1.3H102.2z M107.9,37.8c0,1.2-0.2,1.8-1,2.1
			c-0.8,0.4-1.8,0.4-3.2,0.4c-0.1-0.7-0.5-1.6-0.8-2.3c0.8,0,1.8,0,2,0c0.3,0,0.4-0.1,0.4-0.3V30h2.6V37.8z"/>
		<path fill="#FFFFFF" d="M117,30.8c-0.5,1.3-1.1,2.7-1.8,4.1v13.9h-2.9v-9.4c-0.3,0.3-0.6,0.6-0.8,0.9c-0.3-0.7-1.1-2.4-1.6-3.1
			c1.7-1.7,3.4-4.5,4.4-7.3L117,30.8z M123.7,35.8v1.7h4.9v2.6h-4.9v1.8h5.1v2.7h-5.1v4.2h-3v-13h-0.4c-0.8,1.4-1.7,2.7-2.5,3.7
			c-0.5-0.5-1.6-1.6-2.2-2c1.7-1.8,3.3-4.6,4.2-7.5l2.8,0.7c-0.3,0.8-0.6,1.6-0.9,2.3h7.5v2.8H123.7z"/>
		<path fill="#FFFFFF" d="M132.4,34.9c0-1.2,0.9-2.1,2.1-2.1s2.1,0.9,2.1,2.1c0,1.2-0.9,2.1-2.1,2.1S132.4,36,132.4,34.9z
			 M132.4,44.3c0-1.2,0.9-2.1,2.1-2.1s2.1,0.9,2.1,2.1c0,1.2-0.9,2.1-2.1,2.1S132.4,45.4,132.4,44.3z"/>
		<path fill="#FFFFFF" d="M89.1,85.9c-0.8,8.9-2.2,16.6-4.6,23c2,3.8,4.5,6.8,7.8,8.9c-1.6,1.4-3.8,4.5-4.9,6.5
			c-2.7-2-4.9-4.7-6.7-7.7c-2,3.2-4.5,5.9-7.5,8.2c-1-1.4-3.7-4.4-5.3-5.7c4-2.7,7-6.2,9.1-10.7c-1.3-3.8-2.2-8.1-3-12.7
			c-0.4,0.6-0.8,1.1-1.2,1.7c-0.6-1.3-2-3.8-3.3-5.6v6.4h-21v-6.7h20.8c-0.4-0.5-0.7-0.9-1-1.3c0.3-0.4,0.5-0.7,0.8-1.1H48.7v-4.3
			c-0.7,1.5-1.4,3.1-2.2,4.6v28.7c3.9-3.7,4.1-9.4,4.2-18.4H58c-0.1,11.8-1,20.1-7.3,25.2c-0.8-1.8-2.6-4.6-4.3-6.1v5.8H39v-22.9
			c-0.7,0.8-1.3,1.7-1.9,2.4c-0.7-1.9-2.7-6.2-3.9-8c3.5-3.8,7.3-9.8,9.6-15.5l5.9,2.4V72.8h5.8V83h1.6V67.7h6.4V83h1.7v-10h6.1
			v14.5c2.8-5.2,4.5-12.3,5.4-19.7l7.3,1.3c-0.5,3.2-1.1,6.5-1.9,9.6h10.3v7.3H89.1z M48.9,70.6c-3.1,5.5-7.6,11.3-11.8,15
			c-0.8-1.8-2.6-5.1-3.8-6.8c3.3-2.8,6.9-7.6,8.6-11.2L48.9,70.6z M71,106.2c0.4,1.9,1.2,4.7,1.8,6.2c-8.4,5.2-10.1,6.8-11,8.2
			c-0.4-2-1.9-5.6-3-7.3c1.1-0.7,2.1-2.2,2.1-4.6v-8.9h7.1v8.1L71,106.2z M78.6,86.5c0.5,4,1.1,7.7,1.9,11.3
			c0.8-3.6,1.3-7.6,1.6-11.9h-3.2L78.6,86.5z"/>
		<path fill="#FFFFFF" d="M124.9,109.2c-0.9,5.8-3.7,11.8-10.1,15.7c-1.1-1.7-3.7-4.5-5.5-5.9c4.8-2.4,6.7-6.2,7.4-9.8h-6.2v-7.1
			h6.6v-3.5h-8.4v-7.1h5.5c-0.7-2.5-2.1-5.9-3.3-8.6l3.4-1.4h-4.6v-7.1h8.4c-0.8-1.6-1.9-3.4-2.8-4.7l7-2.8c1.5,2,3.2,4.7,4.1,6.5
			l-2.3,1.1h8.3v7.1h-5.8l5.6,1.2c-1.3,3-2.7,6.1-4,8.8h4.7v7.1h-7.7v3.5h6.5v7.1H124.9z M117.6,81.6c1.3,2.7,2.6,5.8,3.2,8
			l-4.4,1.9h5c1.2-3,2.4-6.9,3.1-10H117.6z M154.5,102.9c2.8,5,7.2,9.8,11.6,12.7c-1.9,1.5-4.5,4.4-5.8,6.5c-2.9-2.4-5.6-5.9-8-9.7
			v12.2h-8.3v-11.8c-3.2,4.1-6.9,7.6-10.8,10.1c-1.3-1.9-3.8-4.9-5.6-6.5c5.6-2.9,11-8.1,14.5-13.4h-8V84.3h10v-3.1h-10.7v-7.4h10.7
			v-6.2h8.3v6.2h12v7.4h-12v3.1h10.4v18.6H154.5z M141.4,96.5h2.5v-5.6h-2.5V96.5z M152.2,90.8v5.6h2.4v-5.6H152.2z"/>
		<path fill="#FFFFFF" d="M218,107.6V79l-4.3,7.3c-1.6-1.3-4-2.9-6.6-4.5v3.6h-12.2v-2c-1.7,1.3-3.4,2.4-5.2,3.4h24.7v19.8h-20.9
			l-0.2,1.3h22.6v16.4h-7.6V123h-9.2v1.5h-7.2v-10c-0.8,3-1.8,5.8-3.2,8.2c-1.7-1.1-5.5-2.6-7.6-3.2c4.7-7.9,5.2-19.2,5.2-26.4v-4.4
			l-0.6,0.3c-0.8-2-3-6.4-4.4-8.4c7.1-2.8,14.5-7.7,18.5-13.3l8,3.2c-0.4,0.5-0.7,1-1.1,1.5c4.1,2.3,8.8,4.9,11.4,6.8v-5.2h8.2v34
			H218z M206.5,100.7v-1.5h-12.4l-0.1,1.5H206.5z M194.3,92.6v0.5v1.1h12.2v-1.6H194.3z M205,80.4l-3.8-2.4
			c-0.9,0.8-1.7,1.6-2.6,2.4H205z M199.1,113.6v3.1h9.2v-3.1H199.1z M237,67.7v46.7c0,4.4-0.7,6.7-3.2,8.1c-2.4,1.4-6,1.7-10.8,1.7
			c-0.3-2.4-1.4-6.3-2.6-8.8c2.9,0.1,5.9,0.1,6.9,0.1c1,0,1.3-0.3,1.3-1.3V67.7H237z"/>
		<path fill="#FFFFFF" d="M276.3,70.6c-1.5,4-3.4,8.2-5.5,12.2v41.8h-8.8V96.3c-0.8,1-1.7,1.9-2.5,2.8c-0.8-2.2-3.2-7.2-4.7-9.4
			c5.2-5.2,10.2-13.5,13.1-21.8L276.3,70.6z M296.3,85.6v5h14.6v7.9h-14.6v5.4h15.4v8.1h-15.4v12.7h-9V85.6h-1.1
			c-2.4,4.3-5,8.2-7.6,11.2c-1.4-1.6-4.7-4.7-6.6-6.1c5.2-5.3,9.9-13.9,12.5-22.5l8.4,2.2c-0.8,2.3-1.7,4.7-2.7,7h22.4v8.3H296.3z"
			/>
	</g>
	<rect x="31.5" y="142.4" fill="#FFA341" width="283" height="54"/>
	<g>
		<path fill="#FFFFFF" d="M110.6,152.4c0.7,4.6,2.3,9.2,5,11.8c-0.8,0.6-2,1.6-2.9,2.5v0.3c-0.3,9.4-0.7,13.2-1.6,14.4
			c-0.7,1-1.5,1.4-2.5,1.6c-0.9,0.2-2.3,0.2-3.8,0.2c-0.1-1.3-0.5-3.1-1.2-4.3c1,0.1,1.8,0.1,2.4,0.1c0.4,0,0.7-0.1,1-0.5
			c0.4-0.6,0.7-2.9,1-8.9h-2.7c-0.8,6.5-2.8,10.9-7.4,13.7c-0.5-0.9-2.2-2.7-3.1-3.5c3.8-2,5.4-5.4,5.9-10.3h-2.3v-2.9
			c-0.5-0.5-1.3-1.4-2.1-2.1v2.5h-4v1.9l1.2-0.9c0.8,0.7,3.3,4,3.9,4.8l-3,3.5c-0.5-1.1-1.2-2.7-2-4.1v11.1h-4.5v-9.5
			c-0.7,2.5-1.7,4.9-3.1,6.4c-0.4-1.6-1.3-4-2-5.6c1.4-1.6,2.6-4.3,3-6.6l2.2,0.8v-1.6h-4.5v-4.5h4.5v-1.2l-3.4,0.9
			c0-2.1-0.5-5.5-1.3-8l3.4-0.8c0.6,1.8,1.1,4,1.4,5.9v-7.8h4.5v8.2c0.5-2,1-4.5,1.2-6.4l4.1,0.8c-0.9,2.8-1.8,6-2.6,8l-2.6-0.7v1.2
			H96c1.7-2.3,2.8-5.6,3.4-9l4.5,0.8c-0.8,4-2.1,7.8-4,10.6h10.2c-1.4-2.5-2.5-5.4-3.1-8.4h-2.7v-4.4H110.6z"/>
		<path fill="#FFFFFF" d="M121.9,174.8c-0.5,2.9-1.3,6-2.1,8c-0.8-0.4-2.6-0.9-3.5-1.1c0.9-1.9,1.6-5,2-7.6L121.9,174.8z
			 M128.2,172.3c-0.1-0.3-0.1-0.7-0.2-1.1c-7.7,1.2-9,1.6-10,2c-0.2-0.8-0.9-2.9-1.4-4c1-0.2,1.8-1,3-2.3c0.4-0.4,1.2-1.3,2.1-2.4
			c-2.6,0.3-3.4,0.5-4,0.8c-0.2-0.8-0.9-2.7-1.3-3.8c0.7-0.2,1.3-0.8,2.1-1.8c0.8-1,3-4.7,4.4-8.4l4,1.7c-1.3,2.7-2.9,5.5-4.7,7.8
			l2.4-0.2c1-1.5,2-3.2,2.8-4.9l3.7,2.4c-1.4,2.4-3.2,4.9-5,7.1l3.3-1c0.9,2.1,2,5,2.4,6.8L128.2,172.3z M125.6,173.7
			c0.4,2.2,0.8,5.1,0.9,6.9l-3.6,1c0-1.9-0.4-4.8-0.7-7L125.6,173.7z M126.9,167.8c-0.3-0.8-0.6-1.7-0.9-2.4c-0.8,1-1.6,1.9-2.5,2.8
			L126.9,167.8z M129.1,172.6c0.8,1.7,1.6,4.1,2,5.6l-3.4,1.3c-0.3-1.5-1.2-3.9-1.9-5.7L129.1,172.6z M142.1,170.3v8.8
			c0,1.9-0.2,3-1.5,3.7c-1.2,0.6-2.6,0.7-4.5,0.7c-0.1-1-0.5-2.4-0.9-3.6c-0.3,0.5-0.5,1-0.8,1.4c-0.9-0.6-2.7-1.5-3.8-1.9
			c1.3-1.8,2.3-4.6,2.8-7.2l4.2,0.8c-0.5,2.2-1.2,4.6-2.1,6.4c0.7,0,1.5,0,1.8,0c0.4,0,0.5-0.1,0.5-0.4v-8.2c-3.1,0.4-4,0.5-4.6,0.8
			c-0.2-0.8-0.9-2.8-1.4-4c1-0.2,1.8-0.9,3-2.1c0.5-0.4,1.2-1.2,2.2-2.3c-2.5,0.3-3.3,0.5-3.8,0.7c-0.2-0.8-0.9-2.7-1.3-3.8
			c0.6-0.2,1.2-0.7,1.9-1.6c0.7-0.8,2.7-3.9,3.9-6.9l3.9,1.7c-1.1,2.1-2.6,4.4-4.1,6.2l2.5-0.1c1-1.3,1.9-2.8,2.7-4.2l3.6,2.5
			c-2.2,3.4-5,6.6-7.8,9.4l4.7-0.3c-0.5-1-1-2-1.5-2.8l3.4-1.6c1.5,2.3,3,5.3,3.6,7.4l-3.7,1.8c-0.1-0.4-0.2-0.9-0.4-1.4
			L142.1,170.3z M146.1,172.1c1.1,2.3,2.2,5.3,2.7,7.3l-4.1,1.5c-0.4-2-1.4-5.2-2.5-7.5L146.1,172.1z"/>
		<path fill="#FFFFFF" d="M180.6,152.5v31H176v-1.6H156v1.6h-4.4v-31H180.6z M176,178.2v-22.1H156v22.1H176z M173.6,171.4h1.8v2.5
			h-4.1v1.5c0,1.5-0.3,2-1.3,2.2c-1,0.3-2.4,0.3-4.2,0.3c-0.2-0.8-0.6-1.7-0.9-2.3c0.7,0,1.7,0,2,0s0.4-0.1,0.4-0.4v-1.4h-4.8
			c0.7,0.8,1.4,1.7,1.7,2.4l-3.2,1.5c-0.3-0.8-1.2-2.1-1.9-3l2.1-1h-5v-2.5h11v-0.6c-3.8,0.1-7.4,0.2-10.3,0.3l-0.1-2.5
			c1.9,0,4.4,0,7,0v-0.8h-6.4v-6.9h6.4v-0.8h-7.1v-2.5h7.1v-1h3.9v1h7.1v2.5h-7.1v0.8h6.4v6.9h-1.1c0.9,0.7,1.8,1.6,2.3,2.2
			L173.6,171.4z M161.2,163.4h2.7v-0.7h-2.7V163.4z M163.9,165.9v-0.8h-2.7v0.8H163.9z M167.8,162.7v0.7h2.6v-0.7H167.8z
			 M167.8,165.2v0.8h2.6v-0.8H167.8z M167.8,167.8v0.8l1.8,0l-0.1,0l1.1-0.7H167.8z M171.4,171.4h1.2c-0.2-0.3-0.5-0.5-0.7-0.8
			l-0.5,0V171.4z"/>
		<path fill="#FFFFFF" d="M187.2,177c0-2.1,1.7-3.7,4-3.7c2.3,0,4,1.6,4,3.7c0,2.1-1.7,3.7-4,3.7C188.9,180.6,187.2,179.1,187.2,177
			z M187.7,160.7l-0.2-5.6h7.3l-0.2,5.6l-1.4,10.6h-4.2L187.7,160.7z"/>
		<path fill="#FFFFFF" d="M201.3,167.9c0-8.3,5.6-13.1,12.3-13.1c3.7,0,6.3,1.5,8,3.2l-3.2,3.8c-1.2-1.1-2.5-1.9-4.6-1.9
			c-3.7,0-6.3,2.9-6.3,7.7c0,5,2.2,7.8,6.8,7.8c0.9,0,1.8-0.2,2.4-0.6v-4h-4V166h9.3v11.7c-1.7,1.7-4.8,3-8.3,3
			C206.7,180.7,201.3,176.4,201.3,167.9z"/>
		<path fill="#FFFFFF" d="M225.8,167.6c0-8.2,4.6-12.8,11.4-12.8c6.8,0,11.4,4.7,11.4,12.8c0,8.2-4.6,13.1-11.4,13.1
			C230.5,180.7,225.8,175.8,225.8,167.6z M242.6,167.6c0-4.8-2-7.7-5.3-7.7c-3.3,0-5.3,2.8-5.3,7.7c0,4.9,2,7.9,5.3,7.9
			C240.6,175.6,242.6,172.5,242.6,167.6z"/>
		<path fill="#FFFFFF" d="M253.6,177c0-2,1.5-3.7,3.5-3.7c2.1,0,3.6,1.6,3.6,3.7c0,2.1-1.5,3.7-3.6,3.7
			C255,180.7,253.6,179.1,253.6,177z M254.3,159.9l-0.2-5.3h6l-0.2,5.3l-0.9,11.3h-3.9L254.3,159.9z"/>
	</g>
</g>
</svg>
