<?xml version="1.0" encoding="utf-8"?>
<!-- Generator: Adobe Illustrator 17.1.0, SVG Export Plug-In . SVG Version: 6.00 Build 0)  -->
<svg version="1.2" baseProfile="tiny" id="圖層_1"
	 xmlns="http://www.w3.org/2000/svg" xmlns:xlink="http://www.w3.org/1999/xlink" x="0px" y="0px" viewBox="0 0 346 226"
	 xml:space="preserve">
<g>
	<g>
		<path fill="#FFFFFF" d="M263.7,39.6c-0.7-0.5-2.2-1.4-3.2-1.9l1.5-2.2c1,0.4,2.5,1.2,3.3,1.7L263.7,39.6z M266.2,42.1
			c-0.8,2.1-1.7,4.3-2.7,6.2l-2.6-1.7c0.8-1.5,2-3.9,2.9-6.2L266.2,42.1z M276.1,45c1.2,0.7,2.6,1.5,3.4,2.1l-2.4,1.7
			c-0.9-0.8-2.8-2-4.2-2.8l1.4-1h-4.5l2.2,0.9c-1.3,1.1-3.4,2.2-5.1,2.8c-0.5-0.6-1.6-1.6-2.2-2.1c1.5-0.4,3.2-1,4.2-1.6h-2.2v-7.6
			h4.3v-0.7h-3.3v-1.5H266v-2.7l-1.2,1.7c-0.7-0.6-2.1-1.4-3.2-2l1.6-2.1c0.8,0.4,2,1,2.8,1.5v-0.4h4.6c-0.1-0.4-0.3-0.8-0.4-1.2
			l3-0.4c0.2,0.5,0.4,1.1,0.6,1.6h5.1v4h-1.7v1.5h-3.5v0.7h4.5V45H276.1z M268.7,33.6v0.9h7.5v-0.9H268.7z M269.3,40.2h1.7v-0.7
			h-1.7V40.2z M269.3,42.9h1.7v-0.7h-1.7V42.9z M273.7,39.5v0.7h1.8v-0.7H273.7z M275.5,42.2h-1.8v0.7h1.8V42.2z"/>
		<path fill="#FFFFFF" d="M295.1,45.3c1.7,0.5,3.4,1.1,4.7,1.6l-2.6,2c-1.6-0.7-4.4-1.7-6.5-2.3l1.8-1.3h-5l1.6,1.2
			c-1.6,0.9-4.2,1.9-6.2,2.4c-0.5-0.6-1.5-1.5-2.2-2.1c1.5-0.3,3.3-0.9,4.6-1.5h-2.7v-9.1h15v9.1H295.1z M296.9,35.7h-13.4v-5.3
			h13.4V35.7z M285.5,38.7h9v-0.5h-9V38.7z M285.5,41h9v-0.5h-9V41z M285.5,43.4h9v-0.5h-9V43.4z M293.8,32.6h-7.3v0.9h7.3V32.6z"/>
		<path fill="#FFFFFF" d="M307.6,34.9c0-1.2,0.9-2.1,2.1-2.1s2.1,0.9,2.1,2.1c0,1.2-0.9,2.1-2.1,2.1S307.6,36,307.6,34.9z
			 M307.6,44.3c0-1.2,0.9-2.1,2.1-2.1s2.1,0.9,2.1,2.1c0,1.2-0.9,2.1-2.1,2.1S307.6,45.4,307.6,44.3z"/>
		<path fill="#FFFFFF" d="M119.9,110.8l4.3,1.1c-1.5,4.6-4.3,9.7-7.1,12.9l-8.4-3.4c2.6-2.5,5.4-7.3,7-11.6l2,0.5V90.8
			c-0.9,1-1.9,1.9-2.8,2.6c-1.5-1.7-4.9-4.8-6.9-6.3c6.1-4.5,11.9-12.1,15.1-19.7l8.6,2.6c-0.7,1.5-1.4,3-2.3,4.5h8.5
			c-0.5-1.6-1.2-3.2-1.9-4.6l7.9-2.7c1.2,2.2,2.5,5,3.2,7.3h16v7.3h-16.6V84h14v6.7h-14V93h14v6.7h-14v2.3h17.2v7.1h-37.5v1.7H119.9
			z M134.3,111.5c0.8,3.7,1.5,8.6,1.6,11.6l-8.6,1.3c0-3-0.4-8-1.1-11.9L134.3,111.5z M138,81.9h-11.6V84H138V81.9z M138,90.7h-11.6
			V93H138V90.7z M138,99.6h-11.6v2.3H138V99.6z M146.6,111c1.4,3.6,2.9,8.3,3.4,11.4l-8.8,1.7c-0.3-3-1.6-7.9-2.8-11.7L146.6,111z
			 M158.3,109.6c2.6,3.7,5.8,8.9,7.3,12.3l-8.8,2.8c-1.1-3.3-4.1-8.7-6.7-12.7L158.3,109.6z"/>
		<path fill="#FFFFFF" d="M191.9,113.4v4.6h-7.5V72.2h17.9v41.3H191.9z M191.9,79.7v9.2h2.8v-9.2H191.9z M194.7,105.9v-9.5h-2.8v9.5
			H194.7z M232.2,116.8c0.7,0,1-0.4,1.1-4c1.4,1.2,4.8,2.5,7,3c-0.8,6.7-2.9,8.4-7.2,8.4h-3.7c-6.1,0-7.3-2.3-7.3-9.1v-5.5h-3.3
			c-1,7.6-4.1,12.4-15.9,15.1c-0.7-2-2.7-5.3-4.3-6.9c9-1.5,11.5-3.8,12.3-8.2h-7.7v-6.8h36.2v6.8h-9.4v5.4c0,1.6,0.1,1.7,0.8,1.7
			H232.2z M203.6,96.4c1.5-0.1,3.2-0.2,5-0.3v-2.3h-4v-5.5h4v-2h-4.7v-6.4h13.4v-2.2h-10.6v-6.3h10.6v-3.2h8.2v3.2h10.7v6.3h-10.7
			v2.2h13.3v6.4h-5.6v2h4.4v5.5h-4.4v1.9h5.8v5.7h-18.1v-5.7h5.7v-1.9h-4.1v-5.5h4.1v-2h-11.4v2h4.1v5.5h-4.1v1.8l4.3-0.4l0.1,5.4
			c-5.3,0.6-10.7,1.1-15.2,1.6L203.6,96.4z"/>
		<path fill="#FFFFFF" d="M304,114.6c1.3,0,1.5-2.4,1.7-11.3c2,1.6,5.6,3.3,8,3.9c-0.7,11.2-2.6,15.8-8.8,15.8h-5
			c-6.3,0-8.4-2.7-8.4-12.1v-10.5l-6.1,5.2c-1.9-3.4-6-8.6-9.3-13c-0.5,10.7-3.1,24.5-13.6,32.5c-1.4-1.7-5-5-7-6.2
			c10.6-8.1,11.5-20.6,11.5-30.1V69.6h33.4V111c0,3.2,0.1,3.6,1.2,3.6H304z M281.2,85.7c3,3.7,7.6,8.8,10.3,12.5V78.3h-15.3v10.6
			v0.7L281.2,85.7z"/>
	</g>
	<rect x="31.5" y="142.4" fill="#FFA341" width="283" height="54"/>
	<g>
		<path fill="#FFFFFF" d="M110.6,152.4c0.7,4.6,2.3,9.2,5,11.8c-0.8,0.6-2,1.6-2.9,2.5v0.3c-0.3,9.4-0.7,13.2-1.6,14.4
			c-0.7,1-1.5,1.4-2.5,1.6c-0.9,0.2-2.3,0.2-3.8,0.2c-0.1-1.3-0.5-3.1-1.2-4.3c1,0.1,1.8,0.1,2.4,0.1c0.4,0,0.7-0.1,1-0.5
			c0.4-0.6,0.7-2.9,1-8.9h-2.7c-0.8,6.5-2.8,10.9-7.4,13.7c-0.5-0.9-2.2-2.7-3.1-3.5c3.8-2,5.4-5.4,5.9-10.3h-2.3v-2.9
			c-0.5-0.5-1.3-1.4-2.1-2.1v2.5h-4v1.9l1.2-0.9c0.8,0.7,3.3,4,3.9,4.8l-3,3.5c-0.5-1.1-1.2-2.7-2-4.1v11.1h-4.5v-9.5
			c-0.7,2.5-1.7,4.9-3.1,6.4c-0.4-1.6-1.3-4-2-5.6c1.4-1.6,2.6-4.3,3-6.6l2.2,0.8v-1.6h-4.5v-4.5h4.5v-1.2l-3.4,0.9
			c0-2.1-0.5-5.5-1.3-8l3.4-0.8c0.6,1.8,1.1,4,1.4,5.9v-7.8h4.5v8.2c0.5-2,1-4.5,1.2-6.4l4.1,0.8c-0.9,2.8-1.8,6-2.6,8l-2.6-0.7v1.2
			H96c1.7-2.3,2.8-5.6,3.4-9l4.5,0.8c-0.8,4-2.1,7.8-4,10.6h10.2c-1.4-2.5-2.5-5.4-3.1-8.4h-2.7v-4.4H110.6z"/>
		<path fill="#FFFFFF" d="M121.9,174.8c-0.5,2.9-1.3,6-2.1,8c-0.8-0.4-2.6-0.9-3.5-1.1c0.9-1.9,1.6-5,2-7.6L121.9,174.8z
			 M128.2,172.3c-0.1-0.3-0.1-0.7-0.2-1.1c-7.7,1.2-9,1.6-10,2c-0.2-0.8-0.9-2.9-1.4-4c1-0.2,1.8-1,3-2.3c0.4-0.4,1.2-1.3,2.1-2.4
			c-2.6,0.3-3.4,0.5-4,0.8c-0.2-0.8-0.9-2.7-1.3-3.8c0.7-0.2,1.3-0.8,2.1-1.8c0.8-1,3-4.7,4.4-8.4l4,1.7c-1.3,2.7-2.9,5.5-4.7,7.8
			l2.4-0.2c1-1.5,2-3.2,2.8-4.9l3.7,2.4c-1.4,2.4-3.2,4.9-5,7.1l3.3-1c0.9,2.1,2,5,2.4,6.8L128.2,172.3z M125.6,173.7
			c0.4,2.2,0.8,5.1,0.9,6.9l-3.6,1c0-1.9-0.4-4.8-0.7-7L125.6,173.7z M126.9,167.8c-0.3-0.8-0.6-1.7-0.9-2.4c-0.8,1-1.6,1.9-2.5,2.8
			L126.9,167.8z M129.1,172.6c0.8,1.7,1.6,4.1,2,5.6l-3.4,1.3c-0.3-1.5-1.2-3.9-1.9-5.7L129.1,172.6z M142.1,170.3v8.8
			c0,1.9-0.2,3-1.5,3.7c-1.2,0.6-2.6,0.7-4.5,0.7c-0.1-1-0.5-2.4-0.9-3.6c-0.3,0.5-0.5,1-0.8,1.4c-0.9-0.6-2.7-1.5-3.8-1.9
			c1.3-1.8,2.3-4.6,2.8-7.2l4.2,0.8c-0.5,2.2-1.2,4.6-2.1,6.4c0.7,0,1.5,0,1.8,0c0.4,0,0.5-0.1,0.5-0.4v-8.2c-3.1,0.4-4,0.5-4.6,0.8
			c-0.2-0.8-0.9-2.8-1.4-4c1-0.2,1.8-0.9,3-2.1c0.5-0.4,1.2-1.2,2.2-2.3c-2.5,0.3-3.3,0.5-3.8,0.7c-0.2-0.8-0.9-2.7-1.3-3.8
			c0.6-0.2,1.2-0.7,1.9-1.6c0.7-0.8,2.7-3.9,3.9-6.9l3.9,1.7c-1.1,2.1-2.6,4.4-4.1,6.2l2.5-0.1c1-1.3,1.9-2.8,2.7-4.2l3.6,2.5
			c-2.2,3.4-5,6.6-7.8,9.4l4.7-0.3c-0.5-1-1-2-1.5-2.8l3.4-1.6c1.5,2.3,3,5.3,3.6,7.4l-3.7,1.8c-0.1-0.4-0.2-0.9-0.4-1.4
			L142.1,170.3z M146.1,172.1c1.1,2.3,2.2,5.3,2.7,7.3l-4.1,1.5c-0.4-2-1.4-5.2-2.5-7.5L146.1,172.1z"/>
		<path fill="#FFFFFF" d="M180.6,152.5v31H176v-1.6H156v1.6h-4.4v-31H180.6z M176,178.2v-22.1H156v22.1H176z M173.6,171.4h1.8v2.5
			h-4.1v1.5c0,1.5-0.3,2-1.3,2.2c-1,0.3-2.4,0.3-4.2,0.3c-0.2-0.8-0.6-1.7-0.9-2.3c0.7,0,1.7,0,2,0s0.4-0.1,0.4-0.4v-1.4h-4.8
			c0.7,0.8,1.4,1.7,1.7,2.4l-3.2,1.5c-0.3-0.8-1.2-2.1-1.9-3l2.1-1h-5v-2.5h11v-0.6c-3.8,0.1-7.4,0.2-10.3,0.3l-0.1-2.5
			c1.9,0,4.4,0,7,0v-0.8h-6.4v-6.9h6.4v-0.8h-7.1v-2.5h7.1v-1h3.9v1h7.1v2.5h-7.1v0.8h6.4v6.9h-1.1c0.9,0.7,1.8,1.6,2.3,2.2
			L173.6,171.4z M161.2,163.4h2.7v-0.7h-2.7V163.4z M163.9,165.9v-0.8h-2.7v0.8H163.9z M167.8,162.7v0.7h2.6v-0.7H167.8z
			 M167.8,165.2v0.8h2.6v-0.8H167.8z M167.8,167.8v0.8l1.8,0l-0.1,0l1.1-0.7H167.8z M171.4,171.4h1.2c-0.2-0.3-0.5-0.5-0.7-0.8
			l-0.5,0V171.4z"/>
		<path fill="#FFFFFF" d="M187.2,177c0-2.1,1.7-3.7,4-3.7c2.3,0,4,1.6,4,3.7c0,2.1-1.7,3.7-4,3.7C188.9,180.6,187.2,179.1,187.2,177
			z M187.7,160.7l-0.2-5.6h7.3l-0.2,5.6l-1.4,10.6h-4.2L187.7,160.7z"/>
		<path fill="#FFFFFF" d="M201.3,167.9c0-8.3,5.6-13.1,12.3-13.1c3.7,0,6.3,1.5,8,3.2l-3.2,3.8c-1.2-1.1-2.5-1.9-4.6-1.9
			c-3.7,0-6.3,2.9-6.3,7.7c0,5,2.2,7.8,6.8,7.8c0.9,0,1.8-0.2,2.4-0.6v-4h-4V166h9.3v11.7c-1.7,1.7-4.8,3-8.3,3
			C206.7,180.7,201.3,176.4,201.3,167.9z"/>
		<path fill="#FFFFFF" d="M225.8,167.6c0-8.2,4.6-12.8,11.4-12.8c6.8,0,11.4,4.7,11.4,12.8c0,8.2-4.6,13.1-11.4,13.1
			C230.5,180.7,225.8,175.8,225.8,167.6z M242.6,167.6c0-4.8-2-7.7-5.3-7.7c-3.3,0-5.3,2.8-5.3,7.7c0,4.9,2,7.9,5.3,7.9
			C240.6,175.6,242.6,172.5,242.6,167.6z"/>
		<path fill="#FFFFFF" d="M253.6,177c0-2,1.5-3.7,3.5-3.7c2.1,0,3.6,1.6,3.6,3.7c0,2.1-1.5,3.7-3.6,3.7
			C255,180.7,253.6,179.1,253.6,177z M254.3,159.9l-0.2-5.3h6l-0.2,5.3l-0.9,11.3h-3.9L254.3,159.9z"/>
	</g>
</g>
</svg>
