<?xml version="1.0" encoding="utf-8"?>
<!-- Generator: Adobe Illustrator 17.1.0, SVG Export Plug-In . SVG Version: 6.00 Build 0)  -->
<svg version="1.2" baseProfile="tiny" id="圖層_1"
	 xmlns="http://www.w3.org/2000/svg" xmlns:xlink="http://www.w3.org/1999/xlink" x="0px" y="0px" viewBox="0 0 346 226"
	 xml:space="preserve">
<g>
	<g>
		<path fill="#FFFFFF" d="M36.3,39.6c-0.7-0.5-2.2-1.4-3.2-1.9l1.5-2.2c1,0.4,2.5,1.2,3.3,1.7L36.3,39.6z M38.7,42.1
			c-0.8,2.1-1.7,4.3-2.7,6.2l-2.6-1.7c0.8-1.5,2-3.9,2.9-6.2L38.7,42.1z M48.6,45c1.2,0.7,2.6,1.5,3.4,2.1l-2.4,1.7
			c-0.9-0.8-2.8-2-4.2-2.8l1.4-1h-4.5l2.2,0.9c-1.3,1.1-3.4,2.2-5.1,2.8c-0.5-0.6-1.6-1.6-2.2-2.1c1.5-0.4,3.2-1,4.2-1.6h-2.2v-7.6
			h4.3v-0.7h-3.3v-1.5h-1.6v-2.7l-1.2,1.7c-0.7-0.6-2.1-1.4-3.2-2l1.6-2.1c0.8,0.4,2,1,2.8,1.5v-0.4h4.6c-0.1-0.4-0.3-0.8-0.4-1.2
			l3-0.4c0.2,0.5,0.4,1.1,0.6,1.6h5.1v4h-1.7v1.5h-3.5v0.7h4.5V45H48.6z M41.3,33.6v0.9h7.5v-0.9H41.3z M41.8,40.2h1.7v-0.7h-1.7
			V40.2z M41.8,42.9h1.7v-0.7h-1.7V42.9z M46.3,39.5v0.7h1.8v-0.7H46.3z M48.1,42.2h-1.8v0.7h1.8V42.2z"/>
		<path fill="#FFFFFF" d="M67.7,45.3c1.7,0.5,3.4,1.1,4.7,1.6l-2.6,2c-1.6-0.7-4.4-1.7-6.5-2.3l1.8-1.3h-5l1.6,1.2
			c-1.6,0.9-4.2,1.9-6.2,2.4c-0.5-0.6-1.5-1.5-2.2-2.1c1.5-0.3,3.3-0.9,4.6-1.5h-2.7v-9.1h15v9.1H67.7z M69.5,35.7H56.1v-5.3h13.4
			V35.7z M58.1,38.7h9v-0.5h-9V38.7z M58.1,41h9v-0.5h-9V41z M58.1,43.4h9v-0.5h-9V43.4z M66.4,32.6H59v0.9h7.3V32.6z"/>
		<path fill="#FFFFFF" d="M80.1,34.9c0-1.2,0.9-2.1,2.1-2.1s2.1,0.9,2.1,2.1c0,1.2-0.9,2.1-2.1,2.1S80.1,36,80.1,34.9z M80.1,44.3
			c0-1.2,0.9-2.1,2.1-2.1s2.1,0.9,2.1,2.1c0,1.2-0.9,2.1-2.1,2.1S80.1,45.4,80.1,44.3z"/>
		<path fill="#FFFFFF" d="M77.5,115.3c4,0,4.6-0.9,5.2-6.4c2,1.4,5.9,2.6,8.4,3.1c-1.2,8.9-3.9,11.2-12.9,11.2h-14
			c-11.2,0-14.2-2.4-14.2-10.5V107c-3.5,1.7-7,3.3-10.6,4.7c-1.3-2-4.4-5.8-6.2-7.7c7-2.3,13.7-5.3,19.9-9H35.1v-8h18.2v-4.7H40.7
			v-7.9h12.7v-6.7h8.8v6.7h12.1v3.5c2.2-2.5,4.3-5.2,6.1-7.9l8.4,4.1C85.6,78.8,82,83,78,87h12.3v8H68.9c-2.3,1.9-4.7,3.6-7.3,5.2
			h21.1v7.7H59.2v4.7c0,2.4,0.8,2.7,5.6,2.7H77.5z M64.8,87c1.9-1.5,3.7-3.1,5.3-4.7h-8.8V87H64.8z"/>
		<path fill="#FFFFFF" d="M162.1,71.6v52.4H153v-3.7h-33.4v3.7h-8.7V71.6H162.1z M119.5,80v11.3h11.9V80H119.5z M119.5,111.4h11.9
			v-11.3h-11.9V111.4z M153,80h-12.6v11.3H153V80z M153,111.4v-11.3h-12.6v11.3H153z"/>
	</g>
	<rect x="31.5" y="142.4" fill="#FFA341" width="283" height="54"/>
	<g>
		<path fill="#FFFFFF" d="M110.6,152.4c0.7,4.6,2.3,9.2,5,11.8c-0.8,0.6-2,1.6-2.9,2.5v0.3c-0.3,9.4-0.7,13.2-1.6,14.4
			c-0.7,1-1.5,1.4-2.5,1.6c-0.9,0.2-2.3,0.2-3.8,0.2c-0.1-1.3-0.5-3.1-1.2-4.3c1,0.1,1.8,0.1,2.4,0.1c0.4,0,0.7-0.1,1-0.5
			c0.4-0.6,0.7-2.9,1-8.9h-2.7c-0.8,6.5-2.8,10.9-7.4,13.7c-0.5-0.9-2.2-2.7-3.1-3.5c3.8-2,5.4-5.4,5.9-10.3h-2.3v-2.9
			c-0.5-0.5-1.3-1.4-2.1-2.1v2.5h-4v1.9l1.2-0.9c0.8,0.7,3.3,4,3.9,4.8l-3,3.5c-0.5-1.1-1.2-2.7-2-4.1v11.1h-4.5v-9.5
			c-0.7,2.5-1.7,4.9-3.1,6.4c-0.4-1.6-1.3-4-2-5.6c1.4-1.6,2.6-4.3,3-6.6l2.2,0.8v-1.6h-4.5v-4.5h4.5v-1.2l-3.4,0.9
			c0-2.1-0.5-5.5-1.3-8l3.4-0.8c0.6,1.8,1.1,4,1.4,5.9v-7.8h4.5v8.2c0.5-2,1-4.5,1.2-6.4l4.1,0.8c-0.9,2.8-1.8,6-2.6,8l-2.6-0.7v1.2
			H96c1.7-2.3,2.8-5.6,3.4-9l4.5,0.8c-0.8,4-2.1,7.8-4,10.6h10.2c-1.4-2.5-2.5-5.4-3.1-8.4h-2.7v-4.4H110.6z"/>
		<path fill="#FFFFFF" d="M121.9,174.8c-0.5,2.9-1.3,6-2.1,8c-0.8-0.4-2.6-0.9-3.5-1.1c0.9-1.9,1.6-5,2-7.6L121.9,174.8z
			 M128.2,172.3c-0.1-0.3-0.1-0.7-0.2-1.1c-7.7,1.2-9,1.6-10,2c-0.2-0.8-0.9-2.9-1.4-4c1-0.2,1.8-1,3-2.3c0.4-0.4,1.2-1.3,2.1-2.4
			c-2.6,0.3-3.4,0.5-4,0.8c-0.2-0.8-0.9-2.7-1.3-3.8c0.7-0.2,1.3-0.8,2.1-1.8c0.8-1,3-4.7,4.4-8.4l4,1.7c-1.3,2.7-2.9,5.5-4.7,7.8
			l2.4-0.2c1-1.5,2-3.2,2.8-4.9l3.7,2.4c-1.4,2.4-3.2,4.9-5,7.1l3.3-1c0.9,2.1,2,5,2.4,6.8L128.2,172.3z M125.6,173.7
			c0.4,2.2,0.8,5.1,0.9,6.9l-3.6,1c0-1.9-0.4-4.8-0.7-7L125.6,173.7z M126.9,167.8c-0.3-0.8-0.6-1.7-0.9-2.4c-0.8,1-1.6,1.9-2.5,2.8
			L126.9,167.8z M129.1,172.6c0.8,1.7,1.6,4.1,2,5.6l-3.4,1.3c-0.3-1.5-1.2-3.9-1.9-5.7L129.1,172.6z M142.1,170.3v8.8
			c0,1.9-0.2,3-1.5,3.7c-1.2,0.6-2.6,0.7-4.5,0.7c-0.1-1-0.5-2.4-0.9-3.6c-0.3,0.5-0.5,1-0.8,1.4c-0.9-0.6-2.7-1.5-3.8-1.9
			c1.3-1.8,2.3-4.6,2.8-7.2l4.2,0.8c-0.5,2.2-1.2,4.6-2.1,6.4c0.7,0,1.5,0,1.8,0c0.4,0,0.5-0.1,0.5-0.4v-8.2c-3.1,0.4-4,0.5-4.6,0.8
			c-0.2-0.8-0.9-2.8-1.4-4c1-0.2,1.8-0.9,3-2.1c0.5-0.4,1.2-1.2,2.2-2.3c-2.5,0.3-3.3,0.5-3.8,0.7c-0.2-0.8-0.9-2.7-1.3-3.8
			c0.6-0.2,1.2-0.7,1.9-1.6c0.7-0.8,2.7-3.9,3.9-6.9l3.9,1.7c-1.1,2.1-2.6,4.4-4.1,6.2l2.5-0.1c1-1.3,1.9-2.8,2.7-4.2l3.6,2.5
			c-2.2,3.4-5,6.6-7.8,9.4l4.7-0.3c-0.5-1-1-2-1.5-2.8l3.4-1.6c1.5,2.3,3,5.3,3.6,7.4l-3.7,1.8c-0.1-0.4-0.2-0.9-0.4-1.4
			L142.1,170.3z M146.1,172.1c1.1,2.3,2.2,5.3,2.7,7.3l-4.1,1.5c-0.4-2-1.4-5.2-2.5-7.5L146.1,172.1z"/>
		<path fill="#FFFFFF" d="M180.6,152.5v31H176v-1.6H156v1.6h-4.4v-31H180.6z M176,178.2v-22.1H156v22.1H176z M173.6,171.4h1.8v2.5
			h-4.1v1.5c0,1.5-0.3,2-1.3,2.2c-1,0.3-2.4,0.3-4.2,0.3c-0.2-0.8-0.6-1.7-0.9-2.3c0.7,0,1.7,0,2,0s0.4-0.1,0.4-0.4v-1.4h-4.8
			c0.7,0.8,1.4,1.7,1.7,2.4l-3.2,1.5c-0.3-0.8-1.2-2.1-1.9-3l2.1-1h-5v-2.5h11v-0.6c-3.8,0.1-7.4,0.2-10.3,0.3l-0.1-2.5
			c1.9,0,4.4,0,7,0v-0.8h-6.4v-6.9h6.4v-0.8h-7.1v-2.5h7.1v-1h3.9v1h7.1v2.5h-7.1v0.8h6.4v6.9h-1.1c0.9,0.7,1.8,1.6,2.3,2.2
			L173.6,171.4z M161.2,163.4h2.7v-0.7h-2.7V163.4z M163.9,165.9v-0.8h-2.7v0.8H163.9z M167.8,162.7v0.7h2.6v-0.7H167.8z
			 M167.8,165.2v0.8h2.6v-0.8H167.8z M167.8,167.8v0.8l1.8,0l-0.1,0l1.1-0.7H167.8z M171.4,171.4h1.2c-0.2-0.3-0.5-0.5-0.7-0.8
			l-0.5,0V171.4z"/>
		<path fill="#FFFFFF" d="M187.2,177c0-2.1,1.7-3.7,4-3.7c2.3,0,4,1.6,4,3.7c0,2.1-1.7,3.7-4,3.7C188.9,180.6,187.2,179.1,187.2,177
			z M187.7,160.7l-0.2-5.6h7.3l-0.2,5.6l-1.4,10.6h-4.2L187.7,160.7z"/>
		<path fill="#FFFFFF" d="M201.3,167.9c0-8.3,5.6-13.1,12.3-13.1c3.7,0,6.3,1.5,8,3.2l-3.2,3.8c-1.2-1.1-2.5-1.9-4.6-1.9
			c-3.7,0-6.3,2.9-6.3,7.7c0,5,2.2,7.8,6.8,7.8c0.9,0,1.8-0.2,2.4-0.6v-4h-4V166h9.3v11.7c-1.7,1.7-4.8,3-8.3,3
			C206.7,180.7,201.3,176.4,201.3,167.9z"/>
		<path fill="#FFFFFF" d="M225.8,167.6c0-8.2,4.6-12.8,11.4-12.8c6.8,0,11.4,4.7,11.4,12.8c0,8.2-4.6,13.1-11.4,13.1
			C230.5,180.7,225.8,175.8,225.8,167.6z M242.6,167.6c0-4.8-2-7.7-5.3-7.7c-3.3,0-5.3,2.8-5.3,7.7c0,4.9,2,7.9,5.3,7.9
			C240.6,175.6,242.6,172.5,242.6,167.6z"/>
		<path fill="#FFFFFF" d="M253.6,177c0-2,1.5-3.7,3.5-3.7c2.1,0,3.6,1.6,3.6,3.7c0,2.1-1.5,3.7-3.6,3.7
			C255,180.7,253.6,179.1,253.6,177z M254.3,159.9l-0.2-5.3h6l-0.2,5.3l-0.9,11.3h-3.9L254.3,159.9z"/>
	</g>
</g>
</svg>
