<?xml version="1.0" encoding="utf-8"?>
<!-- Generator: Adobe Illustrator 17.1.0, SVG Export Plug-In . SVG Version: 6.00 Build 0)  -->
<svg version="1.2" baseProfile="tiny" id="圖層_1"
	 xmlns="http://www.w3.org/2000/svg" xmlns:xlink="http://www.w3.org/1999/xlink" x="0px" y="0px" viewBox="0 0 1041.1 468"
	 xml:space="preserve">
<g>
	<g>
		<polygon fill="#231F20" points="273.8,141.8 454.9,141.7 519.4,141.7 514.1,133.4 557.1,152.1 509.2,74.4 503.8,71.5 505.3,67.9 
			488.8,40.2 483.4,50.8 482.3,49.2 326.8,49.1 327.9,53 284.4,53 283.4,48.6 250.3,48.6 254.7,73.6 250.5,76.9 245,62.6 
			237.6,62.6 234.2,79.9 227,75.7 224.6,50.2 245.9,34 200.7,34 191.1,75.5 183.5,80.3 183,62.4 177.3,62.4 179.7,48.4 100.8,48.3 
			97.1,57.9 82.2,57.9 57.4,116.7 27.2,143.9 152.2,144.1 148.3,160 209.1,106.1 270.4,159.4 267.2,145.3 		"/>
		<g>
			<path fill="#FFFFFF" d="M168.9,55.9L168.9,55.9l-38.2-0.1l-4.3,11.2h8.7l-4.8,10.5l-8.7,2.7l-4.9,13.2l24.7-6.9l19.3,5.1l0.1,0.1
				v-0.1l0.1,0l1.2-5.3l4.5-19.3l0.7-3.4l1.8-7.8H168.9z M151.7,78.2l-8.7-2.6l3.9-8.5h8.2L151.7,78.2z"/>
			<polygon fill="#FFFFFF" points="95.4,117.5 98,110.8 107.5,110.8 111.9,99.6 102.3,99.6 105.3,92.1 115,92.1 119.3,80.8 
				109.7,80.8 112,75 120.7,75 124.5,65 115.8,65 118.3,58.8 122.2,55.8 106.4,55.9 102.8,65 89.2,65 85.5,75 98.9,75 96.6,80.8 
				81.5,80.8 77.2,92.1 92.2,92.1 84.7,111.3 82.1,109.7 87.1,97.5 74.1,97.4 64.4,120.4 64.4,120.4 49.3,134 72.1,134 72.1,134 
				72.1,134 72.1,134 77.8,120 101.1,134.2 101.1,134.2 101.1,134.2 151.4,134.2 153.9,123 104.9,123 			"/>
			<path fill="#FFFFFF" d="M116,96.8l-9,23.8h47.4l5.8-25.9L141,89.4L116,96.8z M143.7,111.2h-21.4l3-7.5l13.7-4.2l7,2.2
				L143.7,111.2z"/>
		</g>
		<polygon fill="#00ADEE" points="240.7,92.3 219,79.4 215.7,44.9 220.6,41.1 207.4,41.1 198.6,79.6 177.4,91.9 177.5,76.3 
			163.1,134.1 209.1,93.4 256.3,134.4 243,76.9 		"/>
		<path fill="#FFFFFF" d="M347.5,111.5l-5.5-2.4l-8.3-26.7h-59.4l2.3-2.9h53.6l-2.9-8.6h-51.5l-0.7-2.8h54.2l-2.6-7.9h-53l-0.3-2.2
			l4.4-2.2h-17.4l3.5,19.8l-5.4,4.6l2.4,16.6l5.1-4.4h5.8l-5.1,4.6l3.8-0.5l8.9,7H262l1.3,9.2h19l-17.6,9.6l1.9,12.2l7.2-4.3
			l22.2-13.1l2.1,11.7l-5.4,5.5h22.5l-4.3-13.8l31.1,13.6l-3-11.3l13.7,5.7L347.5,111.5z M283.5,92.3h8.1l1.3,7.5L283.5,92.3z
			 M304.2,98.7l-2-6.4h9L304.2,98.7z M325.4,92.3l2.9,11.1h-13.2L325.4,92.3z M319.9,112.7h10.8l1.4,5.4L319.9,112.7z"/>
		<path fill="#FFFFFF" d="M425,116.7h11.2l-5.1-11.5h-3.5L420,88.9h-17.6l-2-5.8h17.4l-12-26.7h-44l2.5,8.3h3.4l6,18.4h15.1l1.9,5.8
			h-5.8l-1.3-3.9l-9.6,0l6.1,19.4l7.4-5.1h6.6l1.9,5.8h-17.6l-12.6-38.8h-14.5l-1.6-5.5l2-4.3l-13.5,0l2.7,9.6h-4.6l3.3,11h4.5
			l12.8,39.5H372l1.3,4.2h-14.9l-1.7,11.8h21.1v0h9.2l-5.5-15.9h18l1.4,4.8l-14-0.1l4.3,11.2H417l-5.2-15.8l18.5,16l18.9,0L438,127
			L425,116.7z M364.4,105.1l-9.7-28h3.7l9.6,28H364.4z M380.1,72.6l-2.7-7.8h21.8l3.3,7.8H380.1z M408.2,105.2l-2.1-5.8h7.2l2.2,5.8
			H408.2z"/>
		<g>
			<path fill="#FFFFFF" d="M534,131.8l-10.9-17.9l-21.2-7.8h16.9l-5.6-9.4h-31.3l-2.1-3.4h8.8l-20.4-32.7h-8.8l-1.3-2.2l1.2-2.3
				h-11.6l2.7,4.4h-8.7l17.6,32.7h8.9l1.6,3.4h-35l4.3,9.4h25l-19.8,11l6.6,15.6l4.9-4.3l20.9-17.2l5.2,10.8h-8.5l-9.3,9.8h22.5
				l0,0.1H504l-12.3-19.6L534,131.8z M457.4,72.6l-2.6-4.6h9.1l2.7,4.6H457.4z M463.9,84.5l-3.4-5.6h9.3l3.5,5.6H463.9z"/>
			<polygon fill="#FFFFFF" points="456.1,93.2 447.7,77.9 438.2,73.7 441.8,67.1 436.2,56.3 430.5,64.7 426.7,56.3 418.1,56.2 
				428.5,78.6 439.1,83.4 433.4,93.2 			"/>
			<polygon fill="#FFFFFF" points="491.4,83.7 490.2,93.2 511.4,93.2 503.1,79.4 493.1,73.9 495.9,67.2 489.4,56.4 484.4,66.3 
				477.7,56.3 467.9,56.2 481.9,78.7 			"/>
		</g>
	</g>
	<g>
		<path fill="#FFFFFF" d="M25.9,196.4l6.2-0.7c0.4,2.3,1.1,3.9,2.3,5c1.1,1.1,2.7,1.6,4.6,1.6c2,0,3.6-0.5,4.6-1.4
			c1.1-0.9,1.6-2.1,1.6-3.3c0-0.8-0.2-1.5-0.7-2.1c-0.4-0.6-1.2-1-2.3-1.5c-0.7-0.3-2.4-0.8-5.1-1.5c-3.4-0.9-5.8-2-7.2-3.4
			c-1.9-1.9-2.9-4.2-2.9-6.9c0-1.7,0.5-3.4,1.4-4.9c0.9-1.6,2.2-2.7,3.9-3.5c1.7-0.8,3.8-1.2,6.2-1.2c4,0,6.9,0.9,8.9,2.8
			c2,1.9,3,4.4,3.1,7.6l-6.4,0.3c-0.3-1.8-0.9-3-1.8-3.8c-0.9-0.8-2.2-1.2-4-1.2c-1.9,0-3.3,0.4-4.3,1.2c-0.7,0.5-1,1.2-1,2.1
			c0,0.8,0.3,1.5,0.9,2.1c0.8,0.8,2.8,1.5,5.8,2.3c3.1,0.8,5.4,1.7,6.9,2.5c1.5,0.8,2.6,2,3.5,3.4c0.9,1.5,1.3,3.3,1.3,5.5
			c0,1.9-0.5,3.8-1.5,5.5c-1,1.7-2.4,3-4.3,3.8c-1.8,0.9-4.1,1.3-6.9,1.3c-4,0-7-1-9.2-3C27.6,203.2,26.4,200.3,25.9,196.4z"/>
		<path fill="#FFFFFF" d="M56.9,173.3h6.4v18.6c0,3,0.1,4.9,0.2,5.8c0.3,1.4,0.9,2.5,2,3.4c1,0.9,2.4,1.3,4.2,1.3
			c1.8,0,3.2-0.4,4.1-1.2c0.9-0.8,1.5-1.8,1.7-3c0.2-1.2,0.3-3.1,0.3-5.8v-19H82v18c0,4.1-0.2,7.1-0.5,8.8c-0.3,1.7-1,3.1-1.9,4.3
			c-0.9,1.1-2.2,2.1-3.7,2.8c-1.5,0.7-3.6,1.1-6,1.1c-3,0-5.3-0.4-6.9-1.2c-1.5-0.7-2.8-1.7-3.7-2.9c-0.9-1.2-1.5-2.5-1.8-3.8
			c-0.4-2-0.6-4.9-0.6-8.7V173.3z"/>
		<path fill="#FFFFFF" d="M88.7,207.6v-34.3h10.2c3.9,0,6.4,0.2,7.6,0.5c1.8,0.5,3.3,1.7,4.5,3.4c1.2,1.7,1.8,4,1.8,6.7
			c0,2.1-0.4,3.9-1.1,5.3c-0.7,1.4-1.6,2.6-2.7,3.4c-1.1,0.8-2.2,1.3-3.3,1.7c-1.5,0.3-3.7,0.5-6.6,0.5H95v12.9H88.7z M95,179v9.8
			h3.5c2.5,0,4.2-0.2,5-0.6c0.9-0.3,1.5-0.9,2-1.7c0.5-0.8,0.7-1.7,0.7-2.7c0-1.2-0.3-2.3-1-3.1c-0.7-0.8-1.5-1.3-2.6-1.5
			c-0.7-0.2-2.3-0.3-4.6-0.3H95z"/>
		<path fill="#FFFFFF" d="M118,207.6v-34.3h23.4v5.8h-17v7.7h15.8v5.8h-15.8v9.3H142v5.8H118z"/>
		<path fill="#FFFFFF" d="M147.4,207.6v-34.3h13.4c3.4,0,5.8,0.3,7.3,1c1.5,0.6,2.8,1.7,3.7,3.3c0.9,1.5,1.4,3.4,1.4,5.4
			c0,2.6-0.7,4.7-2.1,6.4c-1.4,1.7-3.5,2.7-6.2,3.2c1.4,0.9,2.5,1.8,3.4,2.8c0.9,1.1,2.1,2.9,3.6,5.6l3.8,6.7h-7.6l-4.6-7.4
			c-1.6-2.7-2.8-4.4-3.4-5.1c-0.6-0.7-1.2-1.2-1.9-1.5c-0.7-0.2-1.8-0.4-3.2-0.4h-1.3v14.3H147.4z M153.7,187.8h4.7
			c3,0,4.9-0.1,5.7-0.4c0.8-0.3,1.4-0.7,1.8-1.4c0.4-0.7,0.6-1.5,0.6-2.6c0-1.2-0.3-2.1-0.8-2.8c-0.6-0.7-1.4-1.2-2.4-1.3
			c-0.5-0.1-2-0.2-4.6-0.2h-5V187.8z"/>
		<path fill="#FFFFFF" d="M191.4,207.6v-34.3h23.3v5.8h-17v7.7h15.8v5.8h-15.8v9.3h17.6v5.8H191.4z"/>
		<path fill="#FFFFFF" d="M220.8,207.6v-34.3h6.2l12.9,22.9v-22.9h5.9v34.3h-6.4l-12.7-22.4v22.4H220.8z"/>
		<path fill="#FFFFFF" d="M259.6,207.6V179h-9.3v-5.8h25v5.8h-9.3v28.6H259.6z"/>
		<path fill="#FFFFFF" d="M279.3,207.6v-34.3h23.3v5.8h-17v7.7h15.8v5.8h-15.8v9.3h17.6v5.8H279.3z"/>
		<path fill="#FFFFFF" d="M308.7,207.6v-34.3h13.4c3.4,0,5.8,0.3,7.3,1c1.5,0.6,2.7,1.7,3.6,3.3c0.9,1.5,1.4,3.4,1.4,5.4
			c0,2.6-0.7,4.7-2.1,6.4c-1.4,1.7-3.4,2.7-6.2,3.2c1.4,0.9,2.5,1.8,3.4,2.8c0.9,1.1,2.1,2.9,3.6,5.6l3.8,6.7h-7.6l-4.6-7.4
			c-1.6-2.7-2.7-4.4-3.3-5.1c-0.6-0.7-1.2-1.2-1.9-1.5c-0.7-0.2-1.7-0.4-3.2-0.4h-1.3v14.3H308.7z M315.1,187.8h4.7
			c3.1,0,5-0.1,5.7-0.4c0.7-0.3,1.3-0.7,1.8-1.4c0.4-0.7,0.6-1.5,0.6-2.6c0-1.2-0.3-2.1-0.8-2.8c-0.6-0.7-1.4-1.2-2.4-1.3
			c-0.5-0.1-2.1-0.2-4.6-0.2h-5V187.8z"/>
		<path fill="#FFFFFF" d="M347.5,207.6V179h-9.3v-5.8h25v5.8h-9.3v28.6H347.5z"/>
		<path fill="#FFFFFF" d="M392.5,207.6h-6.9l-2.7-7.8h-12.6l-2.6,7.8h-6.7l12.3-34.3h6.7L392.5,207.6z M380.8,194l-4.4-12.8
			l-4.3,12.8H380.8z"/>
		<path fill="#FFFFFF" d="M395.7,207.6v-34.3h6.4v34.3H395.7z"/>
		<path fill="#FFFFFF" d="M408.1,207.6v-34.3h6.2l12.9,22.9v-22.9h5.9v34.3h-6.4L414,185.2v22.4H408.1z"/>
		<path fill="#FFFFFF" d="M439.8,207.6v-34.3h9.5l5.7,23.4l5.6-23.4h9.5v34.3h-5.9v-27l-6.3,27h-6.1l-6.2-27v27H439.8z"/>
		<path fill="#FFFFFF" d="M476.5,207.6v-34.3h23.4v5.8h-17v7.7h15.8v5.8h-15.8v9.3h17.6v5.8H476.5z"/>
		<path fill="#FFFFFF" d="M505.9,207.6v-34.3h6.2l12.9,22.9v-22.9h5.9v34.3h-6.4l-12.7-22.4v22.4H505.9z"/>
		<path fill="#FFFFFF" d="M544.7,207.6V179h-9.3v-5.8h25v5.8h-9.3v28.6H544.7z"/>
	</g>
</g>
<g>
	<g id="XMLID_57_">
		<g id="XMLID_58_">
			<g id="XMLID_82_">
				<path fill="#FFFFFF" d="M291.9,330.3l-5.6,0l-5.6,0l-38.5,0.1l-5.6,0l-5.6,0l-0.1,21.9l0,4.5l0,4.5l54.3,0.2
					c4.3,0,6.5-2.2,6.6-6.6L291.9,330.3z M278.9,352.5l-36.8-0.1l0-12.9l38.5,0l0,11.4C280.6,351.9,280,352.5,278.9,352.5z"/>
			</g>
			<g id="XMLID_81_">
				<path fill="#FFFFFF" d="M287.3,324.8c5.8,0,7.5-3.1,4.9-9.3l-8.8-13.9l-13.4,0.1l7.8,11.3c0.6,1.8,0.2,2.7-1.3,2.7l-32,0.2
					l18.8-22.1l-12.9,0.4l-20.2,22.1l0,8.7l14.4-0.1L287.3,324.8z"/>
			</g>
			<g id="XMLID_80_">
				<path fill="#FFFFFF" d="M308.8,320.5l-1.2-5.4l-10.1,0.1l1.9,10.1c1.1,3.9,3.4,5.9,6.9,5.9l5.6,0l0-9.2l-0.7,0
					C309.9,322,309.1,321.5,308.8,320.5z"/>
			</g>
			<g id="XMLID_79_">
				<path fill="#FFFFFF" d="M306.3,312.2l5.6,0l0-9.2l-0.7,0c-1.3,0-2.1-0.5-2.3-1.5l-1.5-5.4l-10.1,0.1l2.1,10.1
					C300.5,310.3,302.8,312.2,306.3,312.2z"/>
			</g>
			<g id="XMLID_78_">
				<path fill="#FFFFFF" d="M313.1,334.7l-10.9,0l-2.2,12.6c0,0-2.2,11.9-8.2,14.4l13,0c0,0,3.2-1.2,6.2-14.7L313.1,334.7z"/>
			</g>
			<g id="XMLID_77_">
				<path fill="#FFFFFF" d="M316.9,328.6c0.4-0.5,0.7-1.5,0.7-2.2l0.1-8.6l-3.1,0l0,3.3c0,0.4-0.1,0.6-0.3,0.8
					c-0.1,0.2-0.4,0.3-0.8,0.3l-0.7,0l0.1,7.3C312.9,329.5,315.8,329.8,316.9,328.6z"/>
			</g>
			<g id="XMLID_76_">
				<polygon fill="#FFFFFF" points="326.5,329.7 330.2,327.6 330.2,317.8 326.5,317.8 				"/>
			</g>
			<g id="XMLID_75_">
				<polygon fill="#FFFFFF" points="331.8,304.1 331.8,308.4 344.5,308.3 344.5,304 				"/>
			</g>
			<g id="XMLID_74_">
				<path fill="#FFFFFF" d="M325,344.5l29.5,0c4.4,0,6.7-2.2,6.7-6.8l0.2-6.6l-5.9,0l-5.8,0l-34.5,0.1l2.9,4.8l31.6,0.2l0,1.1
					c0,1.2-0.5,1.7-1.6,1.7l-21,0l-5.9,0l-5.8,0l-1.3,13.5l35.6,0.2l0,1c0,1.1-0.6,1.7-1.7,1.7l-38-0.1l1.5,6.5l43.3,0.2
					c4.4,0,6.7-2.2,6.7-6.7l0.1-8.5l-36.3,0L325,344.5z"/>
			</g>
			<g id="XMLID_73_">
				<path fill="#FFFFFF" d="M319.5,306.1l-5.1,4.1l0,6l4.4,0l-0.1,13.6l6.7-3l0.1-10.7c3.1,0,4.7-1.6,4.7-4.8l0-2.6l-3.2,0l0,0.8
					c0,0.8-0.4,1.2-1.1,1.2l-1.9,0l5.1-4.8l0-5.4l-5.1,0.1l4.6-4.8L319,296l-4.6,4.8l0,5.4L319.5,306.1z"/>
			</g>
			<g id="XMLID_72_">
				<path fill="#FFFFFF" d="M344.5,329.5c0,0,2.9,0.3,4-0.9c0.5-0.5,0.7-1.5,0.7-2.2l0.1-8.6l-3.1,0l0,3.3c0,0.4-0.1,0.6-0.3,0.8
					c-0.1,0.2-0.4,0.3-0.8,0.3l-0.7,0L344.5,329.5z"/>
			</g>
			<g id="XMLID_71_">
				<polygon fill="#FFFFFF" points="357.5,329.6 361.1,327.5 361.2,317.7 357.5,317.7 				"/>
			</g>
			<g id="XMLID_70_">
				<path fill="#FFFFFF" d="M350.8,306l-5.1,4.1l0,6l4.4,0l-0.1,13.6l6.7-2.9l0.1-10.7c3.1,0,4.7-1.6,4.7-4.8l0-2.6l-3.2,0l0,0.8
					c0,0.8-0.4,1.2-1.1,1.2l-1.9,0l5.1-4.8l0-5.4l-5.1,0.1l4.6-4.8l-9.6,0.1l-4.6,4.8l0,5.4L350.8,306z"/>
			</g>
			<g id="XMLID_69_">
				<polygon fill="#FFFFFF" points="344.5,314.4 344.5,310 331.8,310.1 331.8,314.4 				"/>
			</g>
			<g id="XMLID_66_">
				<path fill="#FFFFFF" d="M331.6,324.1l0,2.4l0,2.5l6.2,0c4.3,0,6.5-2.3,6.6-6.8l0-5.8l-2.4,0l-2.4,0l-3.3,0l-2.4,0l-2.4,0
					L331.6,324.1z M339.6,321.2l0,1.1c0,1.2-0.6,1.8-1.7,1.7l-1.6,0l0-2.8L339.6,321.2z"/>
			</g>
			<g id="XMLID_65_">
				<polygon fill="#FFFFFF" points="345,302 345,297.1 342.3,297.1 342.3,292.3 333.3,292.3 333.3,297.3 330.5,297.3 330.5,302.1 
									"/>
			</g>
			<g id="XMLID_64_">
				<polygon fill="#FFFFFF" points="382.8,305.1 382.8,295.9 372,296.1 372,305.2 				"/>
			</g>
			<g id="XMLID_59_">
				<path fill="#FFFFFF" d="M550.4,340l10.4-9.4l7.5-8.4l-6.2,0c-1.3,0-3.3-0.6-4-1.7l-3.8-4.1l11.2-0.1l0-8.5l-26.1,0.2l0.1-5.1
					l8.1,0l0,0l3.5,0c4.7-0.1,6.6-3.3,6.6-3.3l5.4-8l-10.3,0.1l-1.1,1.8c-1.2,2.1-4.4,1.7-5.2,1.8l-37.3,0.2l-0.6,7.8l20-0.1
					l-0.1,5.1l-26.1,0.2l0,8.3l11.2,0l-5.2,5.1c-0.6,0.8-3.1,1.3-4.2,1.3l-13.3,0l3.8,8.3l13.1,0l0.1,3.9l9.3,0l-3.6,13.1
					c-1.3,3.7-3.1,4.5-4.4,4.5l-8.2,0l-0.5,0c-1.3,0-2.3-0.5-3-1.5l-20.9-40.2l-8.5,0.1l8.1-17l-12.3,0.1l-23.6,57.4
					c-0.6,0.7-1.6,1-2.9,1l-3.2,0l-18.7,0l0-3.1l18.2,0l0-7.6l-18.2,0l0-3.5l16.9,0l0-7.4l-16.9,0.1l0-3.4l17.4-0.1l0-7.4l-6,0
					l2.1-5.4l4.4,0l0-7.6l-18.2,0.2l0-2.9l16.6-0.2l0-6.8l-16.6,0.2l-0.1-4.8l-10.8,0.1l-0.1,4.8l-15.9,0.2l0,6.7l15.9-0.2l0,2.9
					l-17.5,0.2l0,7.5l4.7,0l1.8,5.4l-5.5,0l0,7.3l16.7-0.1l0,3.3l-15.3,0l0,7.3l15.3,0l0,3.5l-16.7,0l0,7.5l16.7,0l0,3.1l-15.6,0
					c-2.3-0.2-4.1-2.2-5.3-5.9l0.2-36.8l-5.5,0l-5.5,0l-6.2,0l0,8.6l6.2,0l-0.2,32.8c0,1.1-0.6,1.7-1.7,1.7l-4.8,0l4.5,8.6l6.5,0
					c2.8,0,4.7-1,5.7-2.9c1.6,1.8,3.6,2.8,5.9,2.9l48.9,0.2l4.2,0l0.9,0l0,0c1.7-0.1,3.1-0.6,4.3-1.5l0,0l0,0
					c0.7-0.5,1.3-1.1,1.9-1.8l17.3-43.5l21.5,42c2.1,3.4,5.3,5.1,9.5,5.1l3.3,0l0.5,0l14,0.1c3.5,0,5.7-1.8,6.7-5.4l7.1-21.7l13.5,0
					l-8.6,6.2l-0.9,4.2l17,0.1l-1.1,5.9c0,0-0.2,2.3-2.4,2.2l-16.4,0l-3,9l26.1-0.1c0,0,6,0,6.9-8.2l1.9-14.5l-5,0L550.4,340z
					 M404.1,325.5l1.1-6.6l-4.6-4.6l6.4-1l2.9-6l2.8,6l6.4,0.9l-4.6,4.7l1.1,6.6l-5.7-3.1L404.1,325.5z M515.8,327.5l9.2-10.9l3.6,0
					l0.1,10.9L515.8,327.5z M539.6,327.4l-0.1-10.9l3.6,0l7.3,9.1c0.4,0.7,0.8,1.2,1.3,1.8l-1.8,0L539.6,327.4z"/>
			</g>
		</g>
	</g>
	<g>
		<rect x="245.7" y="377.6" fill="#FFFFFF" width="304.6" height="1.3"/>
	</g>
	<g>
		<path fill="#E9E9E9" d="M265.9,407.6c-0.2,0.8-0.8,1.1-1.5,1.1c-0.7,0-1.3-0.3-1.5-1.1l-4.2-15.4c0-0.1,0-0.2,0-0.3
			c0-0.5,0.4-0.8,0.9-0.9c0.1,0,0.2,0,0.3,0c0.4,0,0.8,0.2,1,0.7l2.8,10.6c0.3,1.2,0.6,3.3,0.8,4.4c0.2-1.2,0.5-3.2,0.8-4.4
			l2.7-10.3c0.2-0.7,0.7-1,1.5-1c0.7,0,1.2,0.3,1.4,1l2.7,10.3c0.3,1.1,0.6,3.2,0.8,4.4c0.2-1.2,0.6-3.3,0.9-4.4l2.8-10.7
			c0.2-0.5,0.5-0.7,1-0.7c0.1,0,0.2,0,0.3,0c0.5,0.1,0.9,0.4,0.9,0.9c0,0.1,0,0.2,0,0.3l-4.4,15.5c-0.2,0.8-0.8,1.1-1.5,1.1
			c-0.7,0-1.3-0.3-1.5-1.1l-2.6-10.1c-0.4-1.4-0.6-3.3-0.8-4.6c-0.2,1.2-0.5,3.1-0.9,4.5L265.9,407.6z"/>
		<path fill="#E9E9E9" d="M293.6,407.6c-0.2,0.8-0.8,1.1-1.5,1.1c-0.7,0-1.3-0.3-1.5-1.1l-4.2-15.4c0-0.1,0-0.2,0-0.3
			c0-0.5,0.4-0.8,0.9-0.9c0.1,0,0.2,0,0.3,0c0.4,0,0.8,0.2,1,0.7l2.8,10.6c0.3,1.2,0.6,3.3,0.8,4.4c0.2-1.2,0.5-3.2,0.8-4.4
			l2.7-10.3c0.2-0.7,0.7-1,1.5-1c0.7,0,1.2,0.3,1.4,1l2.7,10.3c0.3,1.1,0.6,3.2,0.8,4.4c0.2-1.2,0.6-3.3,0.9-4.4l2.8-10.7
			c0.2-0.5,0.5-0.7,1-0.7c0.1,0,0.2,0,0.3,0c0.5,0.1,0.9,0.4,0.9,0.9c0,0.1,0,0.2,0,0.3l-4.4,15.5c-0.2,0.8-0.8,1.1-1.5,1.1
			c-0.7,0-1.3-0.3-1.5-1.1l-2.6-10.1c-0.4-1.4-0.6-3.3-0.8-4.6c-0.2,1.2-0.5,3.1-0.9,4.5L293.6,407.6z"/>
		<path fill="#E9E9E9" d="M321.2,407.6c-0.2,0.8-0.8,1.1-1.5,1.1c-0.7,0-1.3-0.3-1.5-1.1l-4.2-15.4c0-0.1,0-0.2,0-0.3
			c0-0.5,0.4-0.8,0.9-0.9c0.1,0,0.2,0,0.3,0c0.4,0,0.8,0.2,1,0.7l2.8,10.6c0.3,1.2,0.6,3.3,0.8,4.4c0.2-1.2,0.5-3.2,0.8-4.4
			l2.7-10.3c0.2-0.7,0.7-1,1.5-1c0.7,0,1.2,0.3,1.4,1l2.7,10.3c0.3,1.1,0.6,3.2,0.8,4.4c0.2-1.2,0.6-3.3,0.9-4.4l2.8-10.7
			c0.2-0.5,0.5-0.7,1-0.7c0.1,0,0.2,0,0.3,0c0.5,0.1,0.9,0.4,0.9,0.9c0,0.1,0,0.2,0,0.3l-4.4,15.5c-0.2,0.8-0.8,1.1-1.5,1.1
			c-0.7,0-1.3-0.3-1.5-1.1l-2.6-10.1c-0.4-1.4-0.6-3.3-0.8-4.6c-0.2,1.2-0.5,3.1-0.9,4.5L321.2,407.6z"/>
		<path fill="#E9E9E9" d="M344.4,407.1c0,0.9-0.7,1.6-1.5,1.6c-0.9,0-1.5-0.6-1.5-1.6c0-0.9,0.7-1.5,1.5-1.5
			C343.7,405.6,344.4,406.2,344.4,407.1z"/>
		<path fill="#E9E9E9" d="M352.1,393c-0.6,0-0.9-0.4-0.9-1c0-0.5,0.3-1,0.9-1h12.4c0.5,0,0.9,0.5,0.9,1c0,0.5-0.3,1-0.9,1h-5.1v14.7
			c0,0.6-0.5,0.9-1.1,0.9c-0.6,0-1.1-0.3-1.1-0.9V393H352.1z"/>
		<path fill="#E9E9E9" d="M371.8,393c-0.6,0-0.9-0.4-0.9-1c0-0.5,0.3-1,0.9-1h12.4c0.5,0,0.9,0.5,0.9,1c0,0.5-0.3,1-0.9,1H379v14.7
			c0,0.6-0.5,0.9-1.1,0.9c-0.6,0-1.1-0.3-1.1-0.9V393H371.8z"/>
		<path fill="#E9E9E9" d="M398.6,398.6c3.5,0.7,5.4,1.9,5.4,5.2c0,2.9-2.2,5.1-6.2,5.1c-5.1,0-6.2-2.6-6.7-4.5c0-0.1,0-0.2,0-0.3
			c0-0.5,0.4-0.8,0.9-0.9c0.1,0,0.2,0,0.4,0c0.4,0,0.9,0.2,1,0.7c0.4,1.5,1.1,3.2,4.4,3.2c2.6,0,4.1-1.2,4.1-3.2
			c0-1.8-1-2.6-3.7-3.2l-1.8-0.4c-3.4-0.7-4.9-2-4.9-4.9c0-2.4,1.7-4.6,6-4.6c4,0,5.4,2.2,5.9,3.8c0,0.1,0.1,0.2,0.1,0.3
			c0,0.5-0.4,0.8-0.8,0.9c-0.1,0-0.2,0-0.4,0c-0.4,0-0.8-0.2-1-0.7c-0.4-1.3-1.3-2.5-3.8-2.5c-2.6,0-3.8,1.3-3.8,2.8
			c0,1.6,0.8,2.4,3.3,2.9L398.6,398.6z"/>
		<path fill="#E9E9E9" d="M423.2,391.8c0-0.6,0.5-0.9,1.1-0.9c0.6,0,1,0.3,1,0.9v15.9c0,0.6-0.4,0.9-1,0.9c-0.7,0-1.1-0.3-1.1-0.9
			v-7.4h-9.6v7.4c0,0.6-0.5,0.9-1.1,0.9c-0.6,0-1.1-0.3-1.1-0.9v-15.9c0-0.6,0.4-0.9,1.1-0.9c0.6,0,1.1,0.3,1.1,0.9v6.5h9.6V391.8z"
			/>
		<path fill="#E9E9E9" d="M448.6,399.8c0,5.5-3,9.1-7.8,9.1c-4.8,0-7.8-3.5-7.8-9.1c0-5.5,3-9.1,7.8-9.1
			C445.6,390.7,448.6,394.3,448.6,399.8z M435.2,399.8c0,4.3,2.2,7.1,5.6,7.1c3.5,0,5.6-2.8,5.6-7.3c0-4.2-2.2-7-5.6-7
			C437.4,392.6,435.2,395.5,435.2,399.8z"/>
		<path fill="#E9E9E9" d="M462.4,407.6c-0.2,0.8-0.8,1.1-1.5,1.1c-0.7,0-1.3-0.3-1.5-1.1l-4.2-15.4c0-0.1,0-0.2,0-0.3
			c0-0.5,0.4-0.8,0.9-0.9c0.1,0,0.2,0,0.3,0c0.4,0,0.8,0.2,1,0.7l2.8,10.6c0.3,1.2,0.6,3.3,0.8,4.4c0.2-1.2,0.5-3.2,0.8-4.4
			l2.7-10.3c0.2-0.7,0.7-1,1.5-1c0.7,0,1.2,0.3,1.4,1l2.7,10.3c0.3,1.1,0.6,3.2,0.8,4.4c0.2-1.2,0.6-3.3,0.9-4.4l2.8-10.7
			c0.2-0.5,0.5-0.7,1-0.7c0.1,0,0.2,0,0.3,0c0.5,0.1,0.9,0.4,0.9,0.9c0,0.1,0,0.2,0,0.3l-4.4,15.5c-0.2,0.8-0.8,1.1-1.5,1.1
			c-0.7,0-1.3-0.3-1.5-1.1l-2.6-10.1c-0.4-1.4-0.6-3.3-0.8-4.6c-0.2,1.2-0.5,3.1-0.9,4.5L462.4,407.6z"/>
		<path fill="#E9E9E9" d="M485.5,407.1c0,0.9-0.7,1.6-1.5,1.6c-0.9,0-1.5-0.6-1.5-1.6c0-0.9,0.7-1.5,1.5-1.5
			C484.9,405.6,485.5,406.2,485.5,407.1z"/>
		<path fill="#E9E9E9" d="M493.3,393c-0.6,0-0.9-0.4-0.9-1c0-0.5,0.3-1,0.9-1h12.4c0.5,0,0.9,0.5,0.9,1c0,0.5-0.3,1-0.9,1h-5.1v14.7
			c0,0.6-0.5,0.9-1.1,0.9c-0.6,0-1.1-0.3-1.1-0.9V393H493.3z"/>
		<path fill="#E9E9E9" d="M519.6,407.6c-0.2,0.8-0.8,1.1-1.5,1.1c-0.7,0-1.3-0.3-1.5-1.1l-4.2-15.4c0-0.1,0-0.2,0-0.3
			c0-0.5,0.4-0.8,0.9-0.9c0.1,0,0.2,0,0.3,0c0.4,0,0.8,0.2,1,0.7l2.8,10.6c0.3,1.2,0.6,3.3,0.8,4.4c0.2-1.2,0.5-3.2,0.8-4.4
			l2.7-10.3c0.2-0.7,0.7-1,1.5-1c0.7,0,1.2,0.3,1.4,1l2.7,10.3c0.3,1.1,0.6,3.2,0.8,4.4c0.2-1.2,0.6-3.3,0.9-4.4l2.8-10.7
			c0.2-0.5,0.5-0.7,1-0.7c0.1,0,0.2,0,0.3,0c0.5,0.1,0.9,0.4,0.9,0.9c0,0.1,0,0.2,0,0.3l-4.4,15.5c-0.2,0.8-0.8,1.1-1.5,1.1
			c-0.7,0-1.3-0.3-1.5-1.1l-2.6-10.1c-0.4-1.4-0.6-3.3-0.8-4.6c-0.2,1.2-0.5,3.1-0.9,4.5L519.6,407.6z"/>
	</g>
	<g>
		<linearGradient id="SVGID_1_" gradientUnits="userSpaceOnUse" x1="-40.4761" y1="170.6399" x2="84.7733" y2="309.4777">
			<stop  offset="0" style="stop-color:#FFFFFF"/>
			<stop  offset="0.2051" style="stop-color:#B9C9DF"/>
			<stop  offset="0.4183" style="stop-color:#7896C1"/>
			<stop  offset="0.6122" style="stop-color:#446EA9"/>
			<stop  offset="0.7799" style="stop-color:#1F5197"/>
			<stop  offset="0.9148" style="stop-color:#083F8D"/>
			<stop  offset="1" style="stop-color:#003989"/>
		</linearGradient>
		<polygon fill="url(#SVGID_1_)" points="55.8,339.2 67.5,330.1 197.9,330.1 197.9,322.5 57,270.3 57,278.3 81.4,294.3 22.1,287.7 
			22,295.6 50.1,304.7 12.5,334.2 12.5,341.7 39.3,368.3 142.8,368.5 109.4,399.5 80,371.4 51.6,371.4 51.6,378.9 109.4,435.8 
			201.7,346.7 201.7,339.1 		"/>
		<linearGradient id="SVGID_2_" gradientUnits="userSpaceOnUse" x1="-54.6907" y1="225.5931" x2="126.57" y2="312.9158">
			<stop  offset="0" style="stop-color:#FFFFFF"/>
			<stop  offset="0.2051" style="stop-color:#B9D7F3"/>
			<stop  offset="0.4183" style="stop-color:#78B2E8"/>
			<stop  offset="0.6122" style="stop-color:#4495E0"/>
			<stop  offset="0.7799" style="stop-color:#1F80D9"/>
			<stop  offset="0.9148" style="stop-color:#0873D5"/>
			<stop  offset="1" style="stop-color:#006ED4"/>
		</linearGradient>
		<polygon fill="url(#SVGID_2_)" points="95.1,295.4 22,287.7 57,299 197.9,322.1 		"/>
		<linearGradient id="SVGID_3_" gradientUnits="userSpaceOnUse" x1="108.0612" y1="236.0291" x2="137.5481" y2="327.5253">
			<stop  offset="0" style="stop-color:#FFFFFF"/>
			<stop  offset="0.2051" style="stop-color:#B9D7F3"/>
			<stop  offset="0.4183" style="stop-color:#78B2E8"/>
			<stop  offset="0.6122" style="stop-color:#4495E0"/>
			<stop  offset="0.7799" style="stop-color:#1F80D9"/>
			<stop  offset="0.9148" style="stop-color:#0873D5"/>
			<stop  offset="1" style="stop-color:#006ED4"/>
		</linearGradient>
		<polygon fill="url(#SVGID_3_)" points="57,270.3 95.1,295.4 197.9,322.1 		"/>
		<linearGradient id="SVGID_4_" gradientUnits="userSpaceOnUse" x1="-51.4448" y1="335.2305" x2="96.9026" y2="400.5407">
			<stop  offset="0" style="stop-color:#FFFFFF"/>
			<stop  offset="0.2051" style="stop-color:#B9CDF3"/>
			<stop  offset="0.4183" style="stop-color:#789FE8"/>
			<stop  offset="0.6122" style="stop-color:#447AE0"/>
			<stop  offset="0.7799" style="stop-color:#1F5FD9"/>
			<stop  offset="0.9148" style="stop-color:#084FD5"/>
			<stop  offset="1" style="stop-color:#0049D4"/>
		</linearGradient>
		<polygon fill="url(#SVGID_4_)" points="51.6,371.1 109.4,428.1 80,371.1 		"/>
		<linearGradient id="SVGID_5_" gradientUnits="userSpaceOnUse" x1="164.3046" y1="450.1744" x2="82.9596" y2="344.8356">
			<stop  offset="0" style="stop-color:#FFFFFF"/>
			<stop  offset="0.2051" style="stop-color:#B9CDF3"/>
			<stop  offset="0.4183" style="stop-color:#789FE8"/>
			<stop  offset="0.6122" style="stop-color:#447AE0"/>
			<stop  offset="0.7799" style="stop-color:#1F5FD9"/>
			<stop  offset="0.9148" style="stop-color:#084FD5"/>
			<stop  offset="1" style="stop-color:#0049D4"/>
		</linearGradient>
		<polygon fill="url(#SVGID_5_)" points="39.3,360.5 150.9,360.7 46.1,338.9 		"/>
		<linearGradient id="SVGID_6_" gradientUnits="userSpaceOnUse" x1="-256.4987" y1="383.4409" x2="64.727" y2="383.4409">
			<stop  offset="0" style="stop-color:#FFFFFF"/>
			<stop  offset="0.2051" style="stop-color:#B9CDF3"/>
			<stop  offset="0.4183" style="stop-color:#789FE8"/>
			<stop  offset="0.6122" style="stop-color:#447AE0"/>
			<stop  offset="0.7799" style="stop-color:#1F5FD9"/>
			<stop  offset="0.9148" style="stop-color:#084FD5"/>
			<stop  offset="1" style="stop-color:#0049D4"/>
		</linearGradient>
		<polygon fill="url(#SVGID_6_)" points="150.9,360.7 109.4,428.1 201.7,338.8 		"/>
		<linearGradient id="SVGID_7_" gradientUnits="userSpaceOnUse" x1="-109.2448" y1="310.561" x2="235.4709" y2="310.561">
			<stop  offset="0" style="stop-color:#FFFFFF"/>
			<stop  offset="0.2051" style="stop-color:#B9D7F3"/>
			<stop  offset="0.4183" style="stop-color:#78B2E8"/>
			<stop  offset="0.6122" style="stop-color:#4495E0"/>
			<stop  offset="0.7799" style="stop-color:#1F80D9"/>
			<stop  offset="0.9148" style="stop-color:#0873D5"/>
			<stop  offset="1" style="stop-color:#006ED4"/>
		</linearGradient>
		<polygon fill="url(#SVGID_7_)" points="197.9,322.1 57,299 67.5,322.1 		"/>
		<linearGradient id="SVGID_8_" gradientUnits="userSpaceOnUse" x1="65.3334" y1="328.0771" x2="103.773" y2="402.8088">
			<stop  offset="0" style="stop-color:#FFFFFF"/>
			<stop  offset="0.2051" style="stop-color:#B9CDF3"/>
			<stop  offset="0.4183" style="stop-color:#789FE8"/>
			<stop  offset="0.6122" style="stop-color:#447AE0"/>
			<stop  offset="0.7799" style="stop-color:#1F5FD9"/>
			<stop  offset="0.9148" style="stop-color:#084FD5"/>
			<stop  offset="1" style="stop-color:#0049D4"/>
		</linearGradient>
		<polygon fill="url(#SVGID_8_)" points="80,371.1 109.4,428.1 109.4,399.3 		"/>
		<linearGradient id="SVGID_9_" gradientUnits="userSpaceOnUse" x1="182.8752" y1="311.5871" x2="110.747" y2="411.877">
			<stop  offset="0" style="stop-color:#FFFFFF"/>
			<stop  offset="0.2051" style="stop-color:#B9CDF3"/>
			<stop  offset="0.4183" style="stop-color:#789FE8"/>
			<stop  offset="0.6122" style="stop-color:#447AE0"/>
			<stop  offset="0.7799" style="stop-color:#1F5FD9"/>
			<stop  offset="0.9148" style="stop-color:#084FD5"/>
			<stop  offset="1" style="stop-color:#0049D4"/>
		</linearGradient>
		<polygon fill="url(#SVGID_9_)" points="109.4,399.3 109.4,428.1 150.9,360.7 		"/>
		<linearGradient id="SVGID_10_" gradientUnits="userSpaceOnUse" x1="69.1117" y1="236.9443" x2="170.8835" y2="426.3285">
			<stop  offset="0" style="stop-color:#FFFFFF"/>
			<stop  offset="0.2051" style="stop-color:#B9D7F3"/>
			<stop  offset="0.4183" style="stop-color:#78B2E8"/>
			<stop  offset="0.6122" style="stop-color:#4495E0"/>
			<stop  offset="0.7799" style="stop-color:#1F80D9"/>
			<stop  offset="0.9148" style="stop-color:#0873D5"/>
			<stop  offset="1" style="stop-color:#006ED4"/>
		</linearGradient>
		<polygon fill="url(#SVGID_10_)" points="46.1,338.9 150.9,360.7 201.7,338.8 		"/>
		<linearGradient id="SVGID_11_" gradientUnits="userSpaceOnUse" x1="15.5114" y1="284.0217" x2="36.5562" y2="363.906">
			<stop  offset="0" style="stop-color:#FFFFFF"/>
			<stop  offset="0.2051" style="stop-color:#B9CDF3"/>
			<stop  offset="0.4183" style="stop-color:#789FE8"/>
			<stop  offset="0.6122" style="stop-color:#447AE0"/>
			<stop  offset="0.7799" style="stop-color:#1F5FD9"/>
			<stop  offset="0.9148" style="stop-color:#084FD5"/>
			<stop  offset="1" style="stop-color:#0049D4"/>
		</linearGradient>
		<polygon fill="url(#SVGID_11_)" points="12.5,333.9 39.3,360.5 46.1,338.9 		"/>
		<linearGradient id="SVGID_12_" gradientUnits="userSpaceOnUse" x1="90.9508" y1="278.1465" x2="19.9815" y2="358.2731">
			<stop  offset="0" style="stop-color:#FFFFFF"/>
			<stop  offset="0.1727" style="stop-color:#C5DEF5"/>
			<stop  offset="0.3984" style="stop-color:#80B7EA"/>
			<stop  offset="0.6023" style="stop-color:#4997E0"/>
			<stop  offset="0.7768" style="stop-color:#2181DA"/>
			<stop  offset="0.9151" style="stop-color:#0973D6"/>
			<stop  offset="1" style="stop-color:#006ED4"/>
		</linearGradient>
		<polygon fill="url(#SVGID_12_)" points="67.5,322.1 57,299 46.1,338.9 		"/>
		<linearGradient id="SVGID_13_" gradientUnits="userSpaceOnUse" x1="-43.1332" y1="292.2195" x2="69.6554" y2="327.2635">
			<stop  offset="0" style="stop-color:#FFFFFF"/>
			<stop  offset="0.2051" style="stop-color:#B9D7F3"/>
			<stop  offset="0.4183" style="stop-color:#78B2E8"/>
			<stop  offset="0.6122" style="stop-color:#4495E0"/>
			<stop  offset="0.7799" style="stop-color:#1F80D9"/>
			<stop  offset="0.9148" style="stop-color:#0873D5"/>
			<stop  offset="1" style="stop-color:#006ED4"/>
		</linearGradient>
		<polygon fill="url(#SVGID_13_)" points="57,299 12.5,333.9 46.1,338.9 		"/>
		<linearGradient id="SVGID_14_" gradientUnits="userSpaceOnUse" x1="52.0488" y1="270.859" x2="108.0963" y2="331.0363">
			<stop  offset="0" style="stop-color:#FFFFFF"/>
			<stop  offset="1" style="stop-color:#187FC4;stop-opacity:0"/>
		</linearGradient>
		<polygon fill="url(#SVGID_14_)" points="46.2,338.9 67.6,322.2 198,322.2 57.1,270.3 95.2,295.4 22.1,287.7 57.1,299 12.6,333.9 
			39.4,360.5 151,360.7 109.5,399.3 80.1,371.1 51.7,371.2 109.5,428.1 201.7,338.8 		"/>
		<polygon fill="#FFFFFF" points="189.2,320.7 80,281.1 104.8,297.9 39.8,292.2 60.1,298.6 14.9,333.9 39.8,358.9 153.6,359.5 
			109.4,401.2 80.6,372.6 54.2,372.5 109.4,426.6 197.9,340.5 43.6,339.7 67.5,320.8 		"/>
	</g>
</g>
<g>
	<path fill="#FFFFFF" d="M893.5,66.7c-6-4.1-17.9-14.5-17.9-14.5l-4.5-4.6l0.7-0.6c0,0-7.8-8-11.8-10.9l0,0l0,0
		c-1.2-0.8-2-1.2-2.3-0.9c-1.1,1.7-40.2,24.5-40.2,24.5s-38.1,16.6-49.3,39.5c0,0-14.6,46-9.3,58.6l15.6-20.8l-3.5,26.3l-9.8,7.2
		l4,15.1c0,0,13.1,26.2,65.9,25.9c33.1-0.1,48.3-13.1,55-22.6l41.6-7.8c11.5-6.7,11.2-26.3,11.2-26.3
		C948.1,94.3,899.5,70.8,893.5,66.7z"/>
	<path fill="#E84654" d="M981.3,313.5c5.8,4.6,4.7,10.1-2.4,12.2c-7.2,2.1-9.1,8.4-4.3,14.1c4.8,5.7,2.7,10.9-4.8,11.5
		c-7.4,0.6-10.5,6.5-7,13c3.6,6.5,0.5,11.2-6.9,10.3c-7.4-0.8-11.6,4.3-9.4,11.4c2.3,7.1-1.7,11-8.8,8.8c-7.1-2.3-12.2,1.9-11.4,9.3
		c0.8,7.4-3.8,10.5-10.3,6.9c-6.5-3.6-12.4-0.5-13,6.9c-0.6,7.4-5.8,9.6-11.5,4.8c-5.7-4.8-12-2.9-14.1,4.3
		c-2.1,7.1-7.6,8.2-12.2,2.4c-4.6-5.8-11.2-5.2-14.7,1.4c-3.4,6.6-9,6.6-12.4,0c-3.4-6.6-10-7.3-14.7-1.5
		c-4.6,5.8-10.1,4.7-12.2-2.4c-2.1-7.2-8.4-9.1-14.1-4.3c-5.7,4.8-10.9,2.6-11.5-4.8c-0.6-7.4-6.5-10.5-13-7
		c-6.5,3.6-11.2,0.5-10.3-6.9c0.8-7.4-4.3-11.6-11.4-9.4c-7.1,2.3-11-1.7-8.8-8.8c2.3-7.1-1.9-12.2-9.3-11.4
		c-7.4,0.8-10.5-3.8-6.9-10.3c3.6-6.5,0.5-12.4-6.9-13c-7.4-0.6-9.6-5.8-4.8-11.5c4.8-5.7,2.9-12-4.3-14.1
		c-7.1-2.1-8.2-7.6-2.4-12.2c5.8-4.6,5.2-11.2-1.4-14.7c-6.6-3.4-6.6-9,0-12.4c6.6-3.4,7.3-10,1.5-14.7c-5.8-4.6-4.7-10.1,2.4-12.2
		c7.2-2.1,9.1-8.4,4.3-14.1c-4.8-5.7-2.6-10.9,4.8-11.5c7.4-0.6,10.5-6.5,7-13c-3.6-6.5-0.5-11.2,6.9-10.3
		c7.4,0.8,11.6-4.3,9.4-11.4c-2.2-7.1,1.7-11,8.8-8.8c1.6,0.5,3.2,0.7,4.5,0.6c2.4,4.4,11.1,18.4,28.2,22.8
		c7.2,1.8,12.2,3.3,15.7,4.4l-8,13.2l-1.1,30.7l37.5-28.2l4.5-9.1C843.3,256.8,901,262,901,262l-9.1-27.7c0,0-3.3-5.8-6.8-11.7
		c16.6-4.5,36.1-13.1,49.3-29.4l2.3-2.5c0.4-0.1,0.8-0.2,1.2-0.3c7.1-2.3,11,1.7,8.8,8.8c-2.3,7.1,1.9,12.2,9.3,11.4
		c7.4-0.8,10.5,3.8,6.9,10.3c-3.6,6.5-0.5,12.4,6.9,13c7.4,0.6,9.6,5.8,4.8,11.5c-4.8,5.7-2.9,12,4.3,14.1c7.1,2.1,8.2,7.6,2.4,12.2
		c-5.8,4.6-5.2,11.2,1.4,14.7c6.6,3.4,6.6,9,0,12.4C976.2,302.3,975.5,308.9,981.3,313.5z"/>
	<g>
		<path fill="#FFFFFF" d="M783,382.7h-2.5v-17.4h2.5v7.4h7.1v-7.4h2.5v17.4h-2.5v-7.5H783V382.7z"/>
		<path fill="#FFFFFF" d="M808.6,382.7v-1.6c-0.6,0.6-1.3,1.1-2,1.4c-0.7,0.3-1.5,0.5-2.4,0.5c-2,0-3.6-0.7-4.9-2
			c-1.3-1.3-2-3-2-4.9c0-0.9,0.2-1.8,0.5-2.6c0.3-0.8,0.8-1.6,1.4-2.2c0.7-0.7,1.4-1.2,2.2-1.5c0.8-0.3,1.7-0.5,2.7-0.5
			c0.9,0,1.7,0.2,2.5,0.5c0.8,0.3,1.4,0.8,2.1,1.4v-1.6h2.4v13.1H808.6z M799.7,376c0,1.3,0.4,2.4,1.3,3.3c0.9,0.9,2,1.3,3.2,1.3
			c1.2,0,2.2-0.5,3.1-1.4c0.9-0.9,1.3-2,1.3-3.2c0-1.3-0.4-2.4-1.3-3.3c-0.9-0.9-1.9-1.4-3.1-1.4c-1.2,0-2.3,0.4-3.2,1.3
			C800.2,373.7,799.7,374.8,799.7,376z"/>
		<path fill="#FFFFFF" d="M818.4,381.1v5.8h-2.4v-17.4h2.4v1.6c0.6-0.6,1.3-1.1,2-1.4c0.7-0.3,1.5-0.5,2.4-0.5c2,0,3.6,0.7,4.9,2
			c1.3,1.3,2,3,2,4.9c0,0.9-0.2,1.8-0.5,2.6c-0.3,0.8-0.8,1.6-1.4,2.2c-0.7,0.7-1.4,1.2-2.2,1.5c-0.8,0.3-1.7,0.5-2.7,0.5
			c-0.9,0-1.7-0.2-2.5-0.5C819.8,382.2,819.1,381.7,818.4,381.1z M818.4,376c0,1.3,0.4,2.4,1.3,3.3c0.9,0.9,1.9,1.4,3.1,1.4
			c1.2,0,2.3-0.4,3.2-1.3c0.9-0.9,1.3-1.9,1.3-3.2c0-1.3-0.4-2.4-1.3-3.3c-0.9-0.9-1.9-1.3-3.2-1.3c-1.2,0-2.2,0.5-3.1,1.4
			C818.8,373.8,818.4,374.8,818.4,376z"/>
		<path fill="#FFFFFF" d="M836.6,381.1v5.8h-2.4v-17.4h2.4v1.6c0.6-0.6,1.3-1.1,2-1.4c0.7-0.3,1.5-0.5,2.4-0.5c2,0,3.6,0.7,4.9,2
			c1.3,1.3,2,3,2,4.9c0,0.9-0.2,1.8-0.5,2.6c-0.3,0.8-0.8,1.6-1.4,2.2c-0.7,0.7-1.4,1.2-2.2,1.5c-0.8,0.3-1.7,0.5-2.7,0.5
			c-0.9,0-1.7-0.2-2.5-0.5C838,382.2,837.3,381.7,836.6,381.1z M836.6,376c0,1.3,0.4,2.4,1.3,3.3c0.9,0.9,1.9,1.4,3.1,1.4
			c1.2,0,2.3-0.4,3.2-1.3c0.9-0.9,1.3-1.9,1.3-3.2c0-1.3-0.4-2.4-1.3-3.3c-0.9-0.9-1.9-1.3-3.2-1.3c-1.2,0-2.2,0.5-3.1,1.4
			C837,373.8,836.6,374.8,836.6,376z"/>
		<path fill="#FFFFFF" d="M854.9,368h-2.3v-2.7h2.3V368z M852.5,382.7v-13.1h2.3v13.1H852.5z"/>
		<path fill="#FFFFFF" d="M862.5,382.7h-2.4v-13.1h2.3v1.5c0.5-0.6,1-1,1.6-1.3c0.6-0.3,1.3-0.4,2-0.4c1.7,0,3,0.5,4,1.5
			c0.9,1,1.4,2.5,1.4,4.3v7.5H869v-7c0-1.4-0.3-2.4-0.8-3.1c-0.5-0.7-1.3-1-2.4-1c-1.2,0-2,0.4-2.6,1.2c-0.5,0.8-0.8,2.1-0.8,3.9
			V382.7z"/>
		<path fill="#FFFFFF" d="M878.4,377c0.2,1.1,0.7,2,1.5,2.7c0.8,0.7,1.7,1,2.8,1c0.8,0,1.5-0.2,2.1-0.6c0.6-0.4,1.2-0.9,1.5-1.6h2.7
			c-0.6,1.5-1.5,2.6-2.5,3.3c-1.1,0.8-2.4,1.2-3.8,1.2c-1,0-1.9-0.2-2.7-0.5c-0.8-0.3-1.5-0.9-2.2-1.5c-0.6-0.6-1.1-1.4-1.4-2.3
			c-0.3-0.9-0.5-1.7-0.5-2.6c0-0.9,0.2-1.8,0.5-2.6c0.3-0.8,0.8-1.5,1.4-2.2c0.7-0.7,1.4-1.3,2.2-1.6c0.8-0.4,1.7-0.5,2.7-0.5
			c1.2,0,2.2,0.3,3.2,0.8c1,0.5,1.8,1.3,2.5,2.3c0.4,0.6,0.7,1.3,0.8,2c0.2,0.7,0.3,1.5,0.3,2.4v0.4H878.4z M886.8,374.9
			c-0.3-1.1-0.8-1.9-1.5-2.5c-0.7-0.6-1.6-0.9-2.6-0.9c-1,0-1.9,0.3-2.7,0.9c-0.8,0.6-1.3,1.4-1.6,2.5H886.8z"/>
		<path fill="#FFFFFF" d="M893,378.4h2.2c0,0.7,0.2,1.3,0.6,1.7c0.4,0.4,0.9,0.7,1.5,0.7c0.5,0,1-0.2,1.4-0.5
			c0.4-0.3,0.5-0.8,0.5-1.3c0-0.5-0.1-0.9-0.4-1.2c-0.3-0.3-0.7-0.6-1.2-0.8c-0.2-0.1-0.5-0.2-0.8-0.3c-0.9-0.4-1.5-0.6-1.8-0.8
			c-0.5-0.4-0.8-0.8-1-1.3c-0.2-0.5-0.3-1-0.3-1.6c0-1.1,0.4-2,1.1-2.7c0.7-0.7,1.7-1.1,2.7-1.1c1.1,0,2,0.3,2.7,1
			c0.7,0.7,1,1.6,1.1,2.8H899c0-0.5-0.2-0.9-0.5-1.1c-0.3-0.3-0.7-0.4-1.1-0.4c-0.4,0-0.8,0.1-1.1,0.4c-0.3,0.3-0.4,0.7-0.4,1.1
			c0,0.7,0.6,1.3,1.9,1.8c0.4,0.1,0.6,0.2,0.8,0.3c1,0.4,1.7,0.9,2.1,1.5c0.4,0.6,0.6,1.4,0.6,2.4c0,1.2-0.4,2.2-1.2,2.9
			c-0.8,0.8-1.8,1.2-3,1.2c-1.2,0-2.2-0.4-3-1.2C893.5,381,893.1,379.9,893,378.4z"/>
		<path fill="#FFFFFF" d="M905,378.4h2.2c0,0.7,0.2,1.3,0.6,1.7c0.4,0.4,0.9,0.7,1.5,0.7c0.5,0,1-0.2,1.4-0.5
			c0.4-0.3,0.5-0.8,0.5-1.3c0-0.5-0.1-0.9-0.4-1.2c-0.3-0.3-0.7-0.6-1.2-0.8c-0.2-0.1-0.5-0.2-0.8-0.3c-0.9-0.4-1.5-0.6-1.8-0.8
			c-0.5-0.4-0.8-0.8-1-1.3c-0.2-0.5-0.3-1-0.3-1.6c0-1.1,0.4-2,1.1-2.7c0.7-0.7,1.7-1.1,2.7-1.1c1.1,0,2,0.3,2.7,1
			c0.7,0.7,1,1.6,1.1,2.8h-2.3c0-0.5-0.2-0.9-0.5-1.1c-0.3-0.3-0.7-0.4-1.1-0.4c-0.4,0-0.8,0.1-1.1,0.4c-0.3,0.3-0.4,0.7-0.4,1.1
			c0,0.7,0.6,1.3,1.9,1.8c0.4,0.1,0.6,0.2,0.8,0.3c1,0.4,1.7,0.9,2.1,1.5c0.4,0.6,0.6,1.4,0.6,2.4c0,1.2-0.4,2.2-1.2,2.9
			c-0.8,0.8-1.8,1.2-3,1.2c-1.2,0-2.2-0.4-2.9-1.2C905.5,381,905.1,379.9,905,378.4z"/>
		<path fill="#FFFFFF" d="M814.7,408.2h-4.9v-17.4h5.6c2.6,0,4.7,0.8,6.3,2.4c1.6,1.6,2.4,3.7,2.4,6.3c0,1.5-0.3,2.8-0.9,4
			s-1.5,2.2-2.6,3c-0.8,0.5-1.6,0.9-2.4,1.2C817.3,408,816.1,408.2,814.7,408.2z M812.2,405.8h3.1c1.9,0,3.5-0.6,4.6-1.7
			c1.1-1.1,1.7-2.7,1.7-4.6c0-2-0.6-3.6-1.8-4.7c-1.2-1.1-2.8-1.7-5-1.7h-2.6V405.8z"/>
		<path fill="#FFFFFF" d="M831.1,408.2h-2.4V395h2.2v1.5c0.4-0.6,0.8-1,1.3-1.3c0.5-0.3,1.1-0.4,1.8-0.4v2.5
			c-1.1,0.1-1.8,0.4-2.3,0.9c-0.5,0.5-0.7,1.4-0.7,2.6V408.2z"/>
		<path fill="#FFFFFF" d="M840.6,393.5h-2.3v-2.7h2.3V393.5z M838.3,408.2V395h2.3v13.1H838.3z"/>
		<path fill="#FFFFFF" d="M848.2,408.2h-2.4V395h2.3v1.5c0.5-0.6,1-1,1.6-1.3c0.6-0.3,1.3-0.4,2-0.4c1.7,0,3,0.5,4,1.5
			c0.9,1,1.4,2.5,1.4,4.3v7.5h-2.4v-7c0-1.4-0.3-2.4-0.8-3.1c-0.5-0.7-1.3-1-2.4-1c-1.2,0-2,0.4-2.6,1.2c-0.5,0.8-0.8,2.1-0.8,3.9
			V408.2z"/>
		<path fill="#FFFFFF" d="M862.4,408.2v-17.4h2.3v10.3l4.7-6.1h2.8l-4.8,6.2l5.7,6.9h-3l-5.3-6.7v6.7H862.4z"/>
		<path fill="#FFFFFF" d="M875.6,403.9h2.2c0,0.7,0.2,1.3,0.6,1.7c0.4,0.4,0.9,0.7,1.5,0.7c0.5,0,1-0.2,1.4-0.5
			c0.4-0.3,0.5-0.8,0.5-1.3c0-0.5-0.1-0.9-0.4-1.2c-0.3-0.3-0.7-0.6-1.2-0.8c-0.2-0.1-0.5-0.2-0.8-0.3c-0.9-0.4-1.5-0.6-1.8-0.8
			c-0.5-0.4-0.8-0.8-1-1.3c-0.2-0.5-0.3-1-0.3-1.6c0-1.1,0.4-2,1.1-2.7c0.7-0.7,1.7-1.1,2.7-1.1c1.1,0,2,0.3,2.7,1
			c0.7,0.7,1,1.6,1.1,2.8h-2.3c0-0.5-0.2-0.9-0.5-1.1c-0.3-0.3-0.7-0.4-1.1-0.4c-0.4,0-0.8,0.1-1.1,0.4c-0.3,0.3-0.4,0.7-0.4,1.1
			c0,0.7,0.6,1.3,1.9,1.8c0.4,0.1,0.6,0.2,0.8,0.3c1,0.4,1.7,0.9,2.1,1.5c0.4,0.6,0.6,1.4,0.6,2.4c0,1.2-0.4,2.2-1.2,2.9
			c-0.8,0.8-1.8,1.2-3,1.2c-1.2,0-2.2-0.4-2.9-1.2C876,406.4,875.6,405.3,875.6,403.9z"/>
	</g>
	<path fill="#FFFFFF" d="M714.9,359.5v-7c0-6.3-3.4-17-16.2-17h-7v-71.2h7c4.8,0,8.7-1.5,11.5-4.5c3.2-3.3,4.8-8.2,4.6-13.4
		l-0.3-7.3h259.6l-0.2,7.1c-0.1,5.1,1.6,9.9,4.7,13.1c2.8,2.9,6.7,4.4,11.4,4.4c0,0,0.2,0,0.5,0l7.1-0.2v71.6l-7.1-0.2
		c-0.2,0-0.4,0-0.6,0c-4.6,0-8.4,1.5-11.3,4.4c-3.1,3.2-4.8,7.9-4.7,13.1l0.2,7.1H714.9z"/>
	<path fill="#E84654" d="M976.1,361.4H712.9v-8.9c0-1.5-0.4-15-14.2-15h-8.9v-75.1h8.9c4.3,0,7.7-1.3,10.1-3.9
		c2.8-2.9,4.3-7.3,4.1-12l-0.4-9.3h263.6l-0.2,9.1c-0.1,4.6,1.4,8.9,4.2,11.7c2.4,2.5,5.8,3.8,9.9,3.8c0.1,0,0.3,0,0.5,0l9.1-0.2
		v75.6l-9.1-0.2c-0.2,0-0.4,0-0.5,0c0,0,0,0,0,0c-4.1,0-7.5,1.3-9.9,3.8c-2.7,2.8-4.3,7.1-4.2,11.7L976.1,361.4z M716.8,357.5h255.3
		l-0.1-5.1c-0.1-5.6,1.8-10.9,5.3-14.5c3.2-3.2,7.5-5,12.7-5l0.3,0c0.1,0,0.2,0,0.4,0l5.2,0.1v-67.6l-5.6,0.1c-5.3,0-9.6-1.7-12.8-5
		c-3.5-3.6-5.4-8.8-5.3-14.5l0.1-5.1H716.5l0.2,5.3c0.3,5.8-1.6,11.2-5.1,14.8c-3.2,3.4-7.6,5.1-13,5.1h-5v67.3h5
		c12.5,0,18.1,9.8,18.1,18.9V357.5z"/>
	<g>
		<path fill="#E84654" d="M967.6,353.1H721.2v-0.6c0-11.2-7.1-23.3-22.5-23.3h-0.6v-58.5h0.6c6.5,0,12.1-2.2,16.1-6.4
			c4.3-4.5,6.7-11.1,6.4-18.1l0-0.6h246.5l0,0.6c-0.2,6.8,2.2,13.2,6.5,17.6c4,4.1,9.5,6.3,16,6.3c0.1,0,0.2,0,0.4,0l0.9,0v58.6
			l-0.6,0c-0.1,0-0.2,0-0.3,0c-0.1,0-0.2,0-0.3,0c-6.4,0-12,2.2-16,6.3c-4.3,4.4-6.7,10.8-6.5,17.6L967.6,353.1z M722.5,351.9h243.9
			c0-6.9,2.5-13.4,6.9-17.9c4.3-4.4,10.1-6.6,16.9-6.6l0,0l0-56h0c-6.8,0-12.6-2.3-16.9-6.6c-4.4-4.5-6.9-11-6.9-17.9h-244
			c0.2,7.1-2.3,13.7-6.7,18.4c-4.1,4.3-9.8,6.7-16.4,6.8v56C714.9,328.3,722.2,340.4,722.5,351.9z"/>
	</g>
	<g>
		<g>
			<path fill="#E84654" d="M745,317.2l-2.2-17.6h-0.5l-6.4,4.1l-1.6-5.5l6.3-18.6l-6.1-4.9v-3.8l7.6-3.5l3-10.2l4.3-2
				c1.1,4.1,2,8.3,2.5,12.7l7.4,3v3.8l-7.4,1.9v2.2c0.6,4.1,2.9,7.6,6.8,10.4c-1.4,3.3-3.9,5.4-7.4,6.3l-2.2,21.2L745,317.2z"/>
			<path fill="#E84654" d="M758.7,285.1l-1.9-2.9c1.8-2.9,3.5-5.8,5.1-8.8l-1.1-4l1.3-2.6h1l3.1,0.4l0.8-2.8l-5.9-1.6v-1.2l0.3-1.7
				l11.2-1.4l2.2,2.6l-2.9,12h1.7l5.9-0.8v-0.7l-2.5-12l2.1-2.7c1.1,1.4,2.4,2.5,3.9,3.3l4.6-2.3l3.4,1.4v0.5
				c-1.4,2.4-3,4.6-4.8,6.8l1.5,2.1h0.4c1.6-1.6,3.4-2.9,5.2-4l2.9,1v0.5c-1.2,2.8-2.4,5.6-3.7,8.3l4.3,7.1l-2.1,2.8h-0.5
				c-2.9-3.1-6.4-4.8-10.4-5h-14.5C765,279.5,761.5,281.5,758.7,285.1z M762.8,316l-4.3-3.6l7.5-1.7l1.2-4.6l3.4-0.9l3.6,5h4l3.9-5
				h0.7l3.2,0.1l0.1,5.3l7.5,1.7l-4.3,3.6H762.8z M765.9,301.9l-1.9-12.2l4.4-4.2l19.9,1.9l1.1,12.7l-5.6,2.6L765.9,301.9z
				 M783.9,297.4l1-3.5l-3.7-2.8h-10l-1.4,4.8l3.9,1.7L783.9,297.4z"/>
		</g>
		<g>
			<path fill="#E84654" d="M872.9,272.8v-4l-11.6-2.9l-3.6-10.6l-4,1.8l-3.6,8.6l-10.6,3.2v4l10.6,3l0.5,6.3v1.9l-7.4,6.2
				c-1.1,6.6-1.9,13.4-2.2,20.3c0.9,1.9,2.2,3.7,3.9,5.3c4.5-2.9,9.8-3.8,15.8-2.9c2.3,0.2,4.3,0.9,6.1,2.2l4-4.2l-1.2-19.9l-8.9-7
				l0.7-8.3L872.9,272.8z M862.6,294v10.6h-13.5V294H862.6z"/>
			<path fill="#E84654" d="M833.6,277.4h2l0.8-6.4c0,0-4.4-2.7-9.3-4.3c0,0,0,0,0,0c-0.8-0.3-1.6-0.5-2.4-0.7l1.2-6.7l-6-2.2
				l-2.9,8.2l-5,3c-0.6,0.6-0.9,1.5-0.8,2.7c1,2.3,2.3,4.4,3.9,6.4l-1.7,16c0.2,2.2,1,4.2,2.4,5.9l2.2-1.2h0.4l1.9,3.5l-7.5,9.1
				l2.5,3.3c4.2-3.5,9-5.5,14.3-6.3l4,2.6l3.8-1.6l-4.9-12.8L833.6,277.4z M822.7,276.8l4,0.6l-1.7,13.9v0.4l-0.1,0.1l-4.4-1.6
				L822.7,276.8z"/>
		</g>
		<g>
			<path fill="#E84654" d="M951.8,296l-3.8-2.1l-7.6,1.9h-1l-1.5-3.4v-0.5l7.9-5.9v-18.2l-11.3-5.7c0.4-2.7,1.1-5.1,0.1-7.7
				l-7.1,0.8c-16,26-10.6,61.8-10.6,61.8c6.2-1.1,8.5-2.3,14.3-5l0.9-3.3v-0.3l-7.4-2.1l-0.8-10.1v-2.3l7.1,2.3l15.6,18.2l4.4-2.6
				l-6.6-8.4l7.4-6.9V296z M926,269.3h13l-0.2,3.6l-0.1,0.1H926V269.3z M926,284.3v-4.1h13v4.1H926z"/>
			<path fill="#E84654" d="M913,271.4c0,0-7.7-2-11.6-3.4l1.2-7.3l-0.1-4.2l-4.6,1.2l-3.2,8.5l-5.1,3.6l-0.3,3.3l3.8,4.3l-2.6,19.3
				l1.9,1.9l2.7-0.9h0.6l1.6,2.4l-5.1,11.6l3.2,2.8l9.8-9.7l5.1,2.8l2-3.5l-2.9-6.8c0.8-7,1.2-12.8,1.6-18.8
				c1.9-0.8,1.9-0.8,3.9-1.9L913,271.4z M904.8,293.6l-6.7-3.7l1-10.5l6.3-1.4L904.8,293.6z"/>
		</g>
	</g>
	<path fill="#F0B3B1" d="M795.6,189.8c0-0.1,0.1-0.2,0.2-0.3c0.2-4-0.3-8.6-2.9-11.1c-1.3-0.9-2.6-1.7-3.9-2.7
		c-0.1-0.1-0.2-0.2-0.3-0.4c-0.6-0.1-1.2-0.4-1.6-1c0,0,0,0,0-0.1c-0.4,0-0.8,0.1-1.2,0.1c-3.1,0-6.2,0-9.3,0c-1,0.5-2,0.8-3.2,0.8
		c-3.8,0.1-6.4,1.9-8.1,4.6c0.1,1.3,0.3,2.6,0.3,3.5c0.1,2.4,0.1,4.9,0.1,7.3c2.9,5.5,7.7,7.1,15,6.5c2.9-0.2,9-0.4,13-2.7
		C794.1,192.9,795.1,191.5,795.6,189.8z"/>
	<path fill="#F0B3B1" d="M882,180.1c-0.3-0.2-0.7-0.5-1.1-0.6c-1.6-0.7-4.3-2.8-6-3.2c-1.9-0.4-3.8-0.2-5.8,0
		c-0.3,0.2-0.6,0.4-1,0.4c-1.4,0.2-2.8,0.4-4.1,0.5c-0.3,0.6-0.9,1.1-1.8,1.1c-2.3,0.1-4.6,0.6-6.7,1.4c-0.1,0.1-0.2,0.3-0.3,0.4
		c-1.4,1.2-2.1,2.7-2.8,4.3c-0.3,1.2-0.5,2.4-0.8,3.6c1.7,5.6,5.6,9.5,13,10.7c4.4,0.7,16.8,2,18.7-4.9c0.6-2.1,1.6-3.7,2.7-4.9
		C885.8,185.3,884.7,182,882,180.1z"/>
	<path fill="#DADF00" d="M898,81.9c-23.8-19.9-28.5-31.8-28.5-31.8c-2.6-6.7-5.3-7-9.6-2.3c-6.2,6.8-15.9,9.1-24.4,12.9
		c-10.3,4.7-27.5,10.9-36.7,17.6c-7.2,5.2-11.9,11.9-17.1,19.1c-7.4,10.5-6.5,23.6-8.4,36.8c4.4-2.6,9.8-3.4,15-2.7
		c0.2-0.6,0.7-1.1,1.4-1.3c0.3-0.1,0.7-0.2,1-0.3c2.1-2.3,4.5-4,7.3-5.2c0.6-0.8,1.1-1.6,1.3-2.5c0.4-1.3,1.4-1.7,2.4-1.5
		c0.8-1,2.2-1.4,3.3-0.3c0.8,0.8,1.6,1.7,2.3,2.5c1.6,0,2.7,1,4.2,1.6c3.5,1.2,8.4,3.8,13.8,1.6c1.1-1.4,2.2-2.8,3.4-4
		c2-2.1,5.2,1.1,3.2,3.2c-0.8,0.8-1.4,1.7-2.1,2.6c2.6,1.2,5.1,2.7,7.3,4.9c0.1,0.1,0.2,0.3,0.3,0.4c0.1,0,0.1-0.1,0.2-0.1
		c2.8-0.9,6.1,0,8.7-1.3c2.6-1.3,4.5-3.8,6.8-5.5c2.3-1.8,4.5,2.1,2.3,3.9c-0.5,0.4-1.1,0.8-1.6,1.2c3.1,0.1,6.1,0.5,9.2,1.5
		c2.6,0.8,4.8,2,6.8,3.3c0.1,0,0.1,0,0.2,0c3.3,0.1,7.4,1.9,9.9-1c1.9-2.2,5.1,1,3.2,3.2c-0.6,0.6-1.1,1.1-1.7,1.5
		c0.5,0.4,0.9,0.9,1,1.7c0.3,3.8,1.5,7.3,1.7,11.1c0.4,1.7,0.7,3.5,0.9,5.3c1,8.4,6,16.7,4.7,25.1c-0.1,0.6-0.4,1.1-0.8,1.3
		c-0.4,3.9-1.2,7.5-4.9,10.1c-3.4,2.4-7.3,3.2-11.4,3.3c-5.4,7.9-13,14.1-23.1,15.7c-2.1,0.3-4.2,0.6-6.3,0.7
		c2.6,1.3,5.2,2.4,7.9,3.2c3.7,1,7.5,1.6,11.3,1.7c17.4,0.8,35.4-7.1,47.9-19c4.8-4.6,9.1-10,12.4-16.3
		C939.8,150.5,924.7,104.3,898,81.9z"/>
	<path fill="#E84654" d="M907.1,129.1c-1.6-6.5-4.1-13-6.9-18.7c-2.8-5.6-5.6-10.8-11.2-14.1c-4.1-2.4-8.2-4.7-11.9-7.7
		c-0.6-0.3-1.2-0.7-1.7-1.1c3.7,6.5,8,12.7,12.4,18.7c7.4,6.8,14.6,15.2,18.9,24.6c0.1,0.2,0.3,0.4,0.4,0.6
		C907.2,130.6,907.1,129.8,907.1,129.1z"/>
	<path fill="#DADF00" d="M943.2,197.2c0,0-18.1,6.6-33.3-8.2c-15.2-14.8-1,0-1,0l13.3-11.2l21.7,19.5"/>
	<g>
		<path fill="#E84654" d="M875.3,56.6c-0.1-0.1-0.2-0.3-0.3-0.4C875,56.3,875.1,56.4,875.3,56.6z"/>
		<path fill="#E84654" d="M957.3,194.4c-1.5-2.1-13.8-3-19.5-6.4c0,0,9.7,1.3,14.2,0l-0.7-3c0,0-6.2,0.4-13.6-2.5
			c1.4-2.9,2.8-5.9,4.5-8.7c0-0.1,0.1-0.1,0.1-0.1c3-10.9,3.9-24.3,2.8-35.9c-0.3-3.6-1.6-6.5-1.6-8.8c0-1.1-0.2-2.4-0.5-3.8
			c-0.3-1-0.6-2.1-0.9-3.1c-1.8-5.5-5-12.1-6.9-18.1c-0.8-1.7-1.7-3.3-2.6-5c-0.4-0.1-0.7-0.3-1-0.5c-1.1-2.4-2.4-4.7-3.7-6.9
			c-6-6.7-12.5-12.9-19.9-18c-8.7-6-15.9-12.1-22.8-19.3c-4.5-2.9-6.9-7.3-10-10.6c0.1,0,0.1-0.1,0.1-0.2c-2.3-2.3-4.5-4.5-6.4-7.2
			c-0.1-0.1-0.1-0.2-0.1-0.3c-2-2.5-3.4-5.7-6-6.7c-8.3-3.1-15.5,5.1-19.6,8.8c0,0,0,0.1,0,0.1c-2,1.9-5,4.9-8.8,8.7
			c-7.2,7.2-34,12.4-49.7,29c-4,4-12,13.5-13.3,16c-0.2,0-4.5,5.7-6.4,8.5c-5.9,8.9-8.6,21.6-9.8,32c-0.7,6-0.9,12.2-0.3,18.2
			c0.4,3.5,1,7,1.6,10.5c-1.3,2.8-3.1,5.8-5.6,7.2v2.4l3.6-1.7c0,0,0.9,4.5-6.9,8.7c-7.9,4.2,5.5,5.8,11.1,1.4
			c0.6,3.4,1.6,6.6,3.2,9.7c3.7,6.8,11.4,11.8,18,15.5c1.8,1,3.7,2,5.5,3c2.3,1.3,4.9,2.5,7.5,3.2c2.7,0.8,5.2,1.4,7.8,2.4
			c1.6,0.6,3.5,0.6,5.2,1c0.4,0.1,4,1.4,4.2,1.2c-0.8,0.7-4.9,2.5-5.7,3.2c-1.2,1.1-1.7,2.5-2.6,3.8c-1.3,1.9-3,3.2-3.8,5.4
			c-0.7,2-1.5,3.9-2.4,5.7c-1.8,3.8-3.5,7.8-4.3,11.9c-0.1,0.6-0.6,7.7-0.3,7.6c0.3-0.1,0.7-0.1,1.1,0c5.6,1.6,16.7-8.3,21.5-11.2
			c1.8-1.1,3.2-2.2,4.5-3.4c0.3-0.3,0.6-0.6,0.9-0.9c3.7-3.9,5.8-8.5,8.7-13.9c0.6-1.1,1.9-2.2,2.8-1.8c0.5-0.5,1,0.1,1.9,0.4
			c0.3,0.1,0.6,0.2,0.9,0.3c0.2,0,0.3,0,0.5,0c7.5,2.3,8.7,11.7,13.9,16.9c0.5,0.5,1.1,1,1.7,1.5c3.4,2.3,7.2,4.4,11.2,6
			c2.5,0.3,4.5,0.9,7.5,1.6c0.3,0.3,0.5,0.7,0.7,1.1c3.7,0.9,7.5,1.5,11.2,1.5c0.1,0,0.1,0,0.2,0c0.4,0,0.7,0,1.1,0
			c2-0.2,4.4-1.2,6-0.5c1-0.2,2-0.4,3.1-0.7c0.1-0.4,0.2-0.7,0.5-0.8c1.6-0.4,1.3-0.4,1.2,0c0.2-0.1,0.3-0.3,0.5-0.4
			c1.5-6.4-3.8-11.9-6.3-18.6c-0.1-0.1-0.1-0.2-0.2-0.3c-0.6-1.6-1.4-3.2-2.9-4.1c-0.2-0.1-0.3-0.3-0.5-0.4c-1.8-1-3.1-3.2-4.3-5.1
			c8.4-1.4,15.7-5,22.6-7.9c3.4-2.8,7.1-5.4,10.9-7.6c1.5-0.9,2.9-0.8,4.1-0.3c1.8-0.9,3.4-2,5-3.1l7,0.9c0,0,9.2,0.6,8.8-1.3
			c-2.8-0.7-5.5-1.5-8-2.8l-3.7-0.8c-0.6,0.1-1.3,0-1.9-0.4l-2.1-0.4c0,0-10.8-6.1-14-9.8c0,0-9.7-14.1-12.8-22.8l0-0.1
			c-0.2-2.8,4.2-2.7,4.5,0.1c0,0.5,0.2,0.9,0.2,1.4c0.1,0.1,0.2,0.2,0.3,0.3c3.7,6.1,6.8,12.5,12.5,16.6
			c-3.9-8.5-8.2-16.4-10.9-25.4c-2.4-7.8-6.3-15.1-7-23.3c-0.8-1.4-1.7-2.7-2.7-4c-1.9-1.7-3.6-3.6-4.8-5.8c-2-1.2-3.8-2.5-5.2-4.3
			c-0.1-0.1-0.2-0.1-0.4-0.2c-0.1,0-0.2-0.1-0.2-0.1c-0.2,0.3-0.5,0.6-0.8,0.9c1.9,3.2,2.9,6.7,2.4,9.9c0.7,2.4-0.2,5.4-1.4,7.3
			c0,0.1-0.1,0.1-0.2,0.2c-0.1,0.3-0.2,0.6-0.3,0.9c-0.2,0.7-0.6,1.1-1.1,1.3c-1.4,1.9-5.4,0.8-4.9-2.4c-4.5,3.2-11.8,1.8-15.8-2.9
			c-1.7-2-3.2-2.2-4.7-1.7c0,0.5-0.1,0.9-0.2,1.4c-0.5-0.1-0.8-0.5-1.2-0.7c-0.5,0.3-1.1,0.7-1.6,1.1c0.2,0.8,0.1,1.8-0.3,2.3
			c-0.4-0.3-0.8-0.5-1.6-0.5c-0.1-0.3,0-0.4,0-0.6c-0.9,0.5-1.9,0.7-2.9,0.7c-0.2,0-0.4,0.1-0.6,0.1c-5.9-0.7-10.7-3.3-13-9
			c-4.5,4-9,6.1-15.4,4.3c-2-0.6-12.2-8.8-12.8-8.2c-2.7,2.8-5.6,5.6-8.5,7.3c-0.3,0.3-0.6,0.6-1,0.8c-0.1-0.1-0.1-0.1-0.1-0.2
			c-3.2,1.5-6.5,1.4-9.9-1.4c-0.3,0-0.5-0.1-0.8-0.2c-3.6,1.6-8.4-1.4-7.3-5c0.1-7.1,3.3-14.7,8.5-20c-0.2-0.3-0.5-0.6-0.9-0.9
			c-2.6,2.6-5.2,5.7-7.7,8.7c-1.7,2-3.5,4.3-5,6.7c-1,2.4-1.8,4.8-2.1,7.1c0,0.1-0.1,0.2-0.1,0.3c0.3,0.3,0.4,0.8,0.4,1.4
			c-0.1,1.2-0.5,2.1-1,3.1c-0.4,0.9-0.9,1.7-1.3,2.7c-0.1,2.4-0.5,4.7-1.5,6.8c-0.7,4.8-0.6,9.1-3.9,11.2c0.3-3.8-0.5-6.5-0.5-10
			c-0.3-0.5-0.5-1.1-0.3-1.7c0.5-1.8,0.9-3.7,1.3-5.6c-0.1-2.4,0-4.7,0.5-6.8c-0.1-0.4-0.2-0.8-0.1-1.4c0.5-4.1,1.9-8,3.5-11.8
			c1.1-2.6,1.9-5.4,3.4-7.8c1.1-1.8,2.5-3.5,3.5-5.4c0.9-1.7,12.5-16.4,13.6-17.6c1.4-3.5,7.8-7.5,12.8-10.4
			c3.2-1.9,6.4-3.8,9.6-5.6l0.1,0l13.1-5.4c1.4-0.4,2.8-0.7,4.2-0.9c0.4-0.3,0.8-0.5,1.3-0.7c2-0.9,4.1-1.8,6.3-2.7
			c0.2-0.1,0.3-0.2,0.5-0.2c3.2-2.3,6.3-5,9.5-7.2c3.1-3.5,6.8-7.2,10.9-7.3c7.3-1.1,11,3.7,15.5,8.9c0.1,0.1,0.2,0.3,0.3,0.4
			c0.4,0.3,0.7,0.5,1,1c0.9,1.2,1.9,2.3,2.9,3.4c0-0.1,0.5,0.3,0.7,0.8c4.4,4.8,9.7,8.7,15.2,12.4c1.2,0.5,2.3,1.1,3.6,1.6
			c0.7,0.9,1.6,1.7,2.4,2.5c6.3,4.2,12.5,8.5,17.5,14.1c0.3,0.3,0.3,0.6,0.5,0.9c0.5,0.5,0.8,1.1,1,1.7c3.1,4,5.9,8.1,8.4,12.4
			c1.1,0.6,2.1,2.4,2.2,3.7c5.9,11.1,9.5,23,8.6,36.3c-0.1,0.8-0.3,1.5-0.6,2.1c0.3,5.2,1.1,13-1.5,17.6c-0.4,5.2-1.4,10.5-5.9,13.5
			c-1.3,0.9-2.8-0.1-3.2-1.4c-0.6-0.1-1.2-0.3-1.5-1.1c-4.8-11.7-4-21-5.9-27.4c-0.5-0.6-1.1-1.3-1.7-2c0.1,3.5-0.5,7-0.7,10.5
			c0.1,1.6-0.1,3.3-0.5,4.8c0.7,7.1,1.6,14.2,4.3,20.9c0.1,0.4,0.2,0.7,0.1,0.9c0.3,0.2,0.5,0.6,0.6,1c0.3,0.2,0.7,0.4,0.9,0.7
			c3,4,6.6,8.3,10.9,10.9c2.9,1.7,6.1,2.3,9.3,3c4.9,0.7,10.8,1.1,17.5,0.6C957.3,197.3,958.8,196.4,957.3,194.4z M822.6,132.6
			c1-0.9,0.7,0,2.1,0C825.1,134.5,822.2,134.5,822.6,132.6z M810.2,133.1c1.3,0.1,2,0.8,2.1,2.1c-0.4,0.4-1.4,0.3-1.6,1
			C809.6,136.1,810.5,134,810.2,133.1z M801.4,128.4c1.2,0.8-0.8,2.6-2.1,2.6C799.1,129.2,800.9,129.5,801.4,128.4z M765.7,172.9
			c2.1-3.1,5.2-5.7,7.8-6.7c0.4-7.4,2.2-14.8,3.3-21.7c0-0.2,0.1-0.3,0.1-0.5c0.4-2.5,0.7-4.9,0.8-7.2c0.6-0.6,3,1.8,2.9,3.4
			c0.2,0.1,0.4,0.1,0.5,0.2c0.7-0.1,1.5,0,2.3,0.3c4.6,2.2,8.4,2.8,12.7-0.4c1.1-0.8,2.1-0.9,3-0.7c0.2-0.1,0.5-0.2,0.8-0.2
			c1.2-1.5,2.1-3.2,3.1-4.8c6.2,5.9,17.4,6.3,26.9,3.1c2,1,3.5,1.5,5.8,2.1c0.6-0.3,1.3-0.3,2,0.2c0.4,0.3,0.9,0.4,1.3,0.5
			c0.3,0,0.6,0,0.9,0.1c0.5,0.1,1,0.2,1.4,0.3c0.3,0,0.6,0,0.9,0c0,0,0-0.1,0-0.1c0.7-0.1,1.4-0.1,2,0c0.5,0,1-0.1,1.4-0.1
			c0.4,0,0.7,0.1,1,0.2c1.2-0.2,2.4-0.4,3.6-0.9c0.5-0.2,1-0.2,1.5-0.1c0.5-0.3,1.2-0.4,1.9-0.4c1.2,0,2.1,0.5,2.8,1.1
			c4.3,5.6,7.8,5.2,14.2,4.9c2.8,0.1,4.9-1.3,5.7-1.6c0.7-0.2,1.3-0.3,1.9-0.2c0.8-0.3,1.8-0.5,2.6-0.1c0.2-0.1,0.5-0.1,0.7-0.2
			c0,0.2-0.1,0.4-0.1,0.5c0.8,0.5,1.3,1.3,1.4,2.5c0.1,2.5,0.9,17.5,0.7,21.7c0.3,0.5,5.3,5.6,3.3,15.2c-5.5,14.1-25.8,18.1-40.3,21
			c-2,0.7-5.9,0.7-7.9,1c-14.4,2.1-34.2-2.2-48.6-6.7c-7.9-2.5-16.7-8.3-20.7-12.4C765.2,182,763.7,179.4,765.7,172.9z"/>
	</g>
	<path fill="#DADF00" d="M895.2,191.5c0,0-4.8,5.7-8.1,8.3c-3.2,2.5-23.9,14.3-45.6,15.7c0,0,10.6,0.7,21.8,0.7
		c18.8,0,36.2-14.6,36.2-14.6l2.4-5.2C902,196.5,895.2,195.3,895.2,191.5z"/>
	<path fill="#DADF00" d="M845,219l10.4,16.1c0,0,3.6,5.1,8.7,5.9c5,0.8,21.9,5.3,22,2.2c0.1-3.1-7.7-15.7-14.3-18
		C865.2,223.1,864.9,227.1,845,219z"/>
	<path fill="#DADF00" d="M813.2,220.9c-0.6,0.2-6.9,3.4-8.2,7c-1.3,3.6-7.3,12.8-8.6,16.5c0,0.1,0,0.1,0,0.1
		c0.9-0.2,1.9-0.5,2.8-0.8c0.5-0.3,1-0.7,1.6-1c4.9-3,12-6.3,14.6-10.9c2.6-4.6,7.7-12.7,7.7-12.7L813.2,220.9z"/>
	<g>
		<path fill="#E84654" d="M871.8,183.9c-0.5,0.5-0.8,1.1-1.3,1.7c-0.9,1.2,0.3,1.7,1.3,2.1c0.1,0,1.5-2.2,1.3-2.4
			C872.7,184.8,872.2,184.3,871.8,183.9z"/>
		<path fill="#E84654" d="M864.1,184.2c-0.1-0.1-1,1.3-1.1,1.4c-0.5,0.6-0.2,1.3,0.5,1.5c0.7,0.3,1-0.2,1.3-0.8
			C865.2,185.4,864.9,184.7,864.1,184.2z"/>
		<path fill="#E84654" d="M859,183.5c0.8,1.5,2.7,0.4,2.2-1.2C860.3,182.3,858.2,182,859,183.5z"/>
		<path fill="#E84654" d="M856.3,184c-0.9,0-1.8,0.1-1.2,1.3c0.3,0.5,2,0.9,2.3,0.4c0.2-0.3,0.2-1.3,0-1.6
			C857.2,183.9,856.7,184,856.3,184z"/>
		<path fill="#E84654" d="M774.5,181.4c-0.4,0.4-0.7,0.9-1.1,1.4c-0.8,1,0.2,1.4,1.1,1.7c0.1,0,1.3-1.8,1.1-2
			C775.3,182.2,774.9,181.8,774.5,181.4z"/>
		<path fill="#E84654" d="M782.7,182.3c-0.1,0.6,0.2,2.6,0.7,2.5c0.6-0.2,1.2-0.6,1.8-0.9C784.7,184.1,784.1,180.2,782.7,182.3z"/>
		<path fill="#E84654" d="M788.1,182.1c0.6,1.1,1.9,0.3,1.5-0.8C789,181.2,787.5,181,788.1,182.1z"/>
		<path fill="#E84654" d="M779.7,178.8c-0.5,0-0.9,0.1-1,0.4c-0.3,0.5,0,1.4,0.5,1.9c0.6,0.6,1.4,0.1,1.9-0.4
			C781.5,180.4,780.1,178.8,779.7,178.8z"/>
		<path fill="#E84654" d="M843.8,176.6c-4,4.5-11.2,5.3-16.6,5.3c-8.3,0-20.3,1.7-25.8-4c-0.4-0.4-0.7-0.6-1-1
			c-0.8-0.2-1.7-0.4-2.5-0.7c-1.3,1.7-2.3,1.4-1.4,4.2c2.6,1.7,5.7,2.5,9.7,3.2c0,0.1-0.1,0.2,0,0.3c0.1,1.6,1.9,3.6,3,4.6
			c2.5,2.3,4.5,4,7.7,5.1c3.8,1.3,6.6,2.2,9.9,1.2c3.1-0.9,5.8-1.9,7.9-4.1c1.8-1.8,3.2-4,4.1-6.3c0.1-0.2,0.2-0.5,0.3-0.8
			c0.8-0.1,1.5-0.2,2.3-0.2c4.1-0.2,8.6,0.1,8.5-5.2c-1.6-0.5-3.2-1-4.5-1.8C844.8,176.5,844.3,176.5,843.8,176.6z M824.5,192.6
			c-2.3,0.3-6-0.3-8.7-1.8c-2.2-1.2-2.2-3.2-3.8-5.1c-0.4-0.5-0.6-0.9-0.8-1.3c0.7,0.1,1.3,0.2,2,0.3c0.9,0.1,2.5-0.2,3.5,0
			c0,0,0,0,0.1,0c5.8-0.4,11.7-0.2,17.5-0.3c0.1,0,0.2,0,0.3-0.1C832.8,188.5,828.8,191.9,824.5,192.6z"/>
		<path fill="#E84654" d="M866.1,154.9c1.8,0.1,3.3,1,5,1.4c-0.3-2.2-2.5-4.6-4.7-4.7c-1.2,0-2.4,0.5-3.4,1c-0.1,0-0.2,0.1-0.3,0.2
			c-0.8,0.5-2.4,1.6-2.7,1.5C861.7,155.4,864.1,154.8,866.1,154.9z"/>
		<path fill="#E84654" d="M790.5,153.1c-0.5-0.7-1.3-1.2-2-1.6c-0.1-0.1-0.3-0.2-0.3-0.2c-1.1-0.5-2.2-1.1-3.4-1
			c-2.3,0.1-4.4,2.5-4.7,4.7c1.7-0.5,3.2-1.3,5-1.4C786.7,153.3,788.8,154.2,790.5,153.1z"/>
		<path fill="#E84654" d="M861.9,161.9c-1.2,0.3-2.2,0.9-3.1,1.7c-0.9,0.6-3.5,2-5.8,0.6l-0.8,1.1c0,0,1.3,2.5,3.5,2.9
			c-0.6,1.5-0.9,3.1-0.8,4.5c0.1,6.3,5.4,5.7,10.5,5.6c0.2,0,0.3,0,0.5,0c2.2-0.3,4.4-0.8,6.6-1.2c0.4-0.5,0.7-0.9,1.2-1.4
			c0.7-0.7,1.8-1.4,1.7-2.5c-0.1-0.6,0.1-1.1,0.4-1.5C875.3,165.2,868.3,160.1,861.9,161.9z"/>
		<path fill="#E84654" d="M787.8,163.4c-1.9-1-3.9-1.2-5.8-0.8c-1.6,0-3.8-0.4-4.7-1.8l-0.4,1.2c0,0,0.3,1.4,1.2,2.7
			c-1.3,1.2-2.2,2.8-2.6,4.7c-1,5.2,2.9,6.4,6.6,7.3c1.2,0.3,2.4,0.6,3.5,0.8c0,0,0.1,0,0.1,0c1.4-0.1,3.1,0.6,4.1-0.6
			c0.9-1.1,1.7-2.1,2.2-3.4C792.5,169.9,791.3,165.2,787.8,163.4z"/>
	</g>
	<path fill="#F0B3B1" d="M810,172.2c2.6-1.7,6.5-2.5,9.5-2.9c3.2-0.5,6.6-0.1,9.5,1.5c1.8,1,3.7,1.5,5.6,1.9
		c0.8,0.2,1.7-0.1,2.3,0.7c0.4,0.5-2.5,1.4-2.7,1.5c-5.9,1.2-11.7-1.7-17.6-1c-2.5,0.3-5.3,0.5-7.7,0.8
		C806.1,174.9,809.1,172.9,810,172.2z"/>
	<path fill="#E84654" d="M816.2,220.6c-0.6,0.1-8.3,3.3-11,9c-2.7,5.7-2.8,7.8,1.3,3.5C810.4,228.8,816.2,220.6,816.2,220.6z"/>
	<path fill="#FFFFFF" d="M780.9,164.6c-0.6,0.5-1.2,1.1-1.8,1.6c-1.3,1.1-0.1,1.9,1,2.6c0.1,0.1,2.2-2.1,2-2.4
		C781.7,165.8,781.3,165.2,780.9,164.6z"/>
	<path fill="#FFFFFF" d="M860.2,165.9c-0.5,0.7-0.8,1.6-1.3,2.3c-1,1.6,0.6,2,2,2.4c0.1,0,1.5-3,1.2-3.3
		C861.5,166.8,860.9,166.3,860.2,165.9z"/>
	<path fill="#E84654" d="M851.6,223.4c0,0,4.1,9.5,7.6,11.6c3.5,2.2,13.7,5.7,21.6,5.9c0,0,4.1-0.7-1.3-2.4
		c-5.4-1.7-6.9-1.9-11.8-4.6C862.8,231.2,851.5,219.5,851.6,223.4z"/>
	<g>
		<g>
			<path fill="#E84654" d="M800.5,345.8l-0.3-0.5l-0.4-4.4c0,0-4.6,0.1-6.2,0l-0.9-0.9c1.9-0.5,4.3-1.2,6.9-1.5l0.1-1.9
				c-0.7,0.1-4.7,0.6-7,0.7l-1-0.9v-0.1c1.6-0.5,3.3-0.8,5.3-1.2l0-1.7v-2l-1.5-0.6c-1.2,0.5-2.4,0.4-3.9,0.6l-0.9-0.5l-0.4-1.4
				c3-0.6,6.6-0.9,10-1.2l-0.2-1.8c0,0-2.9,0.2-4,0.1l-1-1.3c1.5-0.4,3-0.5,5.1-0.6l0-1.9l2.4,0.5l0,1.3l3.2,0.1h1.5l-0.2,1.9
				l-0.3,0.2l-2.1-0.4l-2.1,0l-0.2,1.6l2.1,0.1c2.5-0.1,4.2,0.5,6.5,0.6l0.8,1l0.1,0.3c-0.6,0.3-1.4,0.5-2.4,0.5l-1.9-0.3l-0.7,0.1
				l-1.1,3.4l1,0.3l1.9,0.7l0.6,0.4l0.1,0.5c-0.3,0.3-0.7,0.4-1.2,0.3l-5.2,0.3l-0.3,0.3l0,1.8l2.8,0.3l1.6,0.2l0.7,0.4l0.1,0.5
				c-0.6,0.3-1.2,0.5-2,0.6l-3.5,0.5l0,4.4l0.3,0.8L800.5,345.8z M803.2,334.2l1.1-3.8l-5.2,0.2l-0.4,0.5v2.2l1,1.1L803.2,334.2z"/>
			<path fill="#E84654" d="M823.6,345.2c-0.2-0.4-0.4-4.2-0.4-4.2l0-3.3h-0.6l-2.2,2.2c-0.7,0.5-2.4,1.6-2.4,1.6l-0.9-0.8v-0.3
				c2.5-2.1,3.6-4.4,6.3-7.3c0,0-2.5,0.4-3.9,0.5l-0.8-0.7v-0.2c1.6-0.7,3.4-1.3,5.5-1.6h2.7l1.2,1l-2.6,2.7l0.5,1.1l3.3,2.5
				l-0.4,0.9l-3-1.6l-0.2,1.8v1.6v2l0,1.6C825.3,345,823.6,345.2,823.6,345.2z M823,330.2l-0.9-1.1l-0.2-2.6l3.1,0.6l-0.3,1.7
				l-1.2,1.3L823,330.2z M830.7,326.5l-0.9-0.8v-0.3c0.9-0.4,1.9-0.7,3-1l2.3-0.3l0.9,0.1l0.5-0.1l1.5,0.6l0.1,0.6
				C837.9,325.7,831.9,326.4,830.7,326.5z M830.8,336l3.1,0.1l2.5-0.4l3.3,0.1c0.4,0.5,1.6,3.4,1.6,3.4l0.4,4.7l-0.7,0.7l-2.6,0.4
				h-4.8l-3.7-0.3l-0.1-0.5l0.3-4.7L830.8,336z M832.2,334.4l-1.3-1.3v-2.7V328l0.6-0.2l2.3,0.5h1.9l3,0.6l0.1,0.9l-0.8,1.9l0.3,1.7
				C836.4,333.7,834.4,333.9,832.2,334.4z M834.2,343.8l0.4-2.3l-1-0.5l-1.1,0.7l-0.2,1.9l1.5,0.6L834.2,343.8z M836,331.5l0.6-2
				l-3.8,0.3l-0.2,1.9c0.6,0.7,1.3,0.9,2.1,0.7L836,331.5z M834.6,339.8l0.6-2.2l-1.4-0.3l-1.2,1.1v1.3l1.7,0.4L834.6,339.8z
				 M838.5,343.5l0.3-2l-0.3-0.4h-1.8c-0.6,0.7-0.9,1.4-0.8,2.3l0.5,0.4h1.7L838.5,343.5z M839.2,339.7l0.4-0.5v-1.9
				c-0.7-0.7-1.5-0.9-2.3-0.6c-0.6,0.7-0.8,1.6-0.7,2.6l0.6,0.6h1.8L839.2,339.7z"/>
			<path fill="#E84654" d="M857.4,345.8l-0.8-0.7l-0.9-1.7l1-5.4l-3.1-0.7l-1.7-1l-1.6,2.1l-2.7-1.6l7-5.4c0,0-1.2-2.8-1.5-4.5
				l-2.4-0.1c-0.4-0.5-0.7-1.4-0.7-1.4l2.8-0.4l-0.3-1.5l1.7-0.2l0.9,0.5l0.5,0.8l3.3-0.1l0.4-1.8h0.8l0.7,0.5l0.1,0.3l0,1l3.5-0.1
				l0.4,1.1c-0.7,0.4-4.3,1.1-4.3,1.1c-0.4,1.9-0.6,2.1-1.2,3.8l-1.5,0.3l-0.4-0.7c0.5-1.2,0.8-1.9,1-3.4l-2.8,0.2l0.3,3.9
				c0,0,7.1,2.1,9.6,3l0,1.1l-0.9,1.3l-1.2,1.5c0,0-3.3,0.6-4.9,0.6l0,6.5L857.4,345.8z M849.7,344.8l-0.5-1.2l4.1-4.3h1.1
				c0.3,0.2,0.6,0.8,0.5,1.1c-1.4,2-1.6,2.3-3.4,4.3L849.7,344.8z M857.6,333.3l-2-0.8c-1.1,1.1-1.4,1.4-2.5,2.8l3.7,0
				C856.8,335.4,857.1,334.7,857.6,333.3z M864.1,335l-1.3-0.7l-3.7-0.6l-0.2,1.5l3.1,0.1L864.1,335z M865.2,343.6
				c-1.5-0.7-2-0.8-3.6-1.8l-0.9-1.4l0,0l2.4-1c1.4,1.2,4.2,2.9,4.2,2.9L865.2,343.6z"/>
			<path fill="#E84654" d="M878.5,345.4l-1.1-1.3l-0.6-3.3l-2.3,2.4l-0.8-0.6c0,0,2.6-6.5,3.1-9.9c0,0-1.5,0.1-2.6,0.2
				c-0.4-0.4-0.4-0.6-0.7-1.1l3.3-0.8l-0.2-3.7l0.4-0.2l1.1,0.3l0.2,0.3l0.2,2.6l2.4-0.3l0.9,0.5l0.1,0.5l-0.2,0.2l-2.8,0.8
				l-0.2,1.3c0.8,0.9,4.3,3.9,4.3,3.9l0.1,0.5l-0.8,0.4l-3.5-0.7l0.5,7.3L878.5,345.4z M895.5,345c-1.2-0.4-4.5-2.9-4.5-2.9
				l-0.8,0.1l-2.2,2.7l-1.1,0.1l-0.7-0.9l3.3-3.1l-1-1.6c0,0-3.9,1.3-5.5,1.6l-0.6-0.8c1.5-0.7,5-2.9,5-2.9
				c-0.5-0.9-1.9-2.4-1.9-2.4l3.1-2.4l0.2-0.6l-2-3.2l-3,0.7l-1.3-1.2l0.6-0.6l1.7-0.1l1.3-0.3l-0.4-2.1l0.5-0.4l1.1,0.5l0.6,1.7
				l2.6-0.4l1.1,0.4l0.2,0.6c-0.8,0.4-2,0.5-3,0.9c0,0,0.9,1.9,1.6,2l1.1-1.5l0.4,0l0.7,0.5c0,0-1.4,2-1.7,3.1
				c0.9,0.9,1.7,1.8,2.3,2.8l-0.5,0.3l-2.7-1l-1.5,1.1l0.6,1.2l4.8-0.7l0.5,0.8l-0.9,0.6l-3.2,1.9l1.4,1.5c1.3,0.7,4.4,1.7,5,1.9
				l-0.2,2.3L895.5,345z M895.2,328.1l-1.3-0.1c-1.2-0.9-1.9-1.7-2.9-2.8c0,0,2-1.2,2.7-1.8l2,4.4
				C895.6,328,895.4,328.1,895.2,328.1z M898,336.6l-2-1.5l-1.2-2.2l0.8-0.2l0.9,0.1l1.6,1.5l1.7,0.4l-0.5,1.4L898,336.6z"/>
		</g>
		<g>
			<rect x="725.6" y="336.1" fill="#E84654" width="61.8" height="1"/>
		</g>
		<g>
			<rect x="903.1" y="336.1" fill="#E84654" width="61.8" height="1"/>
		</g>
	</g>
	<g>
		<circle fill="#E84654" cx="698.7" cy="247.5" r="8.3"/>
		<circle fill="#E84654" cx="990.8" cy="247.5" r="8.3"/>
		<circle fill="#E84654" cx="698.7" cy="352.5" r="8.3"/>
		<circle fill="#E84654" cx="990.8" cy="352.5" r="8.3"/>
	</g>
</g>
</svg>
