<?xml version="1.0" encoding="utf-8"?>
<!-- Generator: Adobe Illustrator 17.1.0, SVG Export Plug-In . SVG Version: 6.00 Build 0)  -->
<svg version="1.2" baseProfile="tiny" id="圖層_1"
	 xmlns="http://www.w3.org/2000/svg" xmlns:xlink="http://www.w3.org/1999/xlink" x="0px" y="0px" viewBox="0 0 595.3 408.8"
	 xml:space="preserve">
<path fill="#F04E5E" d="M410.3,259.2c4.8,3.8,3.9,8.3-2,10c-5.9,1.7-7.5,6.9-3.5,11.6c3.9,4.7,2.2,8.9-3.9,9.4
	c-6.1,0.5-8.7,5.3-5.7,10.7c2.9,5.4,0.4,9.2-5.7,8.5c-6.1-0.7-9.5,3.5-7.7,9.3c1.8,5.8-1.4,9.1-7.2,7.2c-5.8-1.9-10,1.6-9.4,7.7
	c0.7,6.1-3.1,8.6-8.5,5.7c-5.3-3-10.1-0.4-10.7,5.7c-0.5,6.1-4.8,7.8-9.4,3.9c-4.7-3.9-9.9-2.4-11.6,3.5c-1.7,5.9-6.2,6.8-10,2
	c-3.8-4.8-9.2-4.2-12,1.2c-2.8,5.4-7.4,5.4-10.2,0c-2.8-5.4-8.2-6-12-1.2c-3.8,4.8-8.3,3.9-10-2c-1.7-5.9-6.9-7.5-11.6-3.5
	c-4.7,3.9-8.9,2.2-9.4-3.9c-0.5-6.1-5.3-8.7-10.7-5.7c-5.4,2.9-9.2,0.4-8.5-5.7c0.7-6.1-3.5-9.5-9.3-7.7c-5.8,1.8-9.1-1.4-7.2-7.2
	c1.9-5.8-1.6-10-7.7-9.4c-6.1,0.7-8.6-3.1-5.7-8.5c3-5.3,0.4-10.1-5.7-10.7c-6.1-0.5-7.8-4.8-3.9-9.4c3.9-4.7,2.4-9.9-3.5-11.6
	c-5.9-1.7-6.8-6.2-2-10c4.8-3.8,4.2-9.2-1.2-12c-5.4-2.8-5.4-7.4,0-10.2c5.4-2.8,6-8.2,1.2-12c-4.8-3.8-3.9-8.3,2-10
	c5.9-1.7,7.5-6.9,3.5-11.6c-3.9-4.7-2.2-8.9,3.9-9.4c6.1-0.5,8.7-5.3,5.7-10.7c-2.9-5.4-0.4-9.2,5.7-8.5c6.1,0.7,9.5-3.5,7.7-9.3
	c-1.8-5.8,1.4-9.1,7.2-7.2c1.3,0.4,2.6,0.6,3.7,0.5c1.9,3.6,9.1,15.1,23.2,18.7c5.9,1.5,10,2.7,12.9,3.6l-6.6,10.8l-0.9,25.2
	l30.8-23.1l3.7-7.5c8.8,26.4,56.2,30.6,56.2,30.6l-7.4-22.7c0,0-2.7-4.7-5.6-9.6c13.7-3.7,29.7-10.7,40.5-24.1l1.9-2
	c0.3-0.1,0.6-0.2,1-0.3c5.8-1.8,9.1,1.4,7.2,7.2c-1.9,5.8,1.6,10,7.7,9.4c6.1-0.7,8.6,3.1,5.7,8.5c-3,5.3-0.4,10.1,5.7,10.7
	c6.1,0.5,7.8,4.8,3.9,9.4c-3.9,4.7-2.4,9.9,3.5,11.6c5.9,1.7,6.8,6.2,2,10c-4.8,3.8-4.2,9.2,1.2,12c5.4,2.8,5.4,7.4,0,10.2
	C406,250,405.5,255.4,410.3,259.2z"/>
<g>
	<path fill="#FFFFFF" d="M89.5,379.6v-11.2c0-10.1-5.5-27.2-26-27.2H52.4V226.9h11.2c7.7,0,14-2.4,18.5-7.2
		c5.1-5.3,7.7-13.1,7.4-21.5L89,186.5h416.7l-0.3,11.4c-0.2,8.2,2.6,15.9,7.6,21c4.6,4.7,10.7,7,18.4,7c0.1,0,0.4,0,0.7,0l11.4-0.3
		v114.9l-11.4-0.3c-0.3,0-0.7,0-1,0c-7.4,0-13.6,2.4-18.1,7c-5,5.1-7.8,12.7-7.6,21l0.3,11.4H89.5z"/>
	<path fill="#F04E5E" d="M508.8,382.7H86.4v-14.3c0-2.5-0.6-24.1-22.9-24.1H49.3V223.7h14.3c6.9,0,12.3-2.1,16.3-6.2
		c4.5-4.7,6.8-11.7,6.5-19.2l-0.7-14.9h423.2l-0.3,14.6c-0.2,7.4,2.3,14.2,6.7,18.7c3.9,4,9.3,6,16,6.1c0.2,0,0.5,0,0.8,0l14.6-0.3
		v121.3l-14.6-0.3c-0.3,0-0.6,0-0.9,0c0,0,0,0,0,0c-6.7,0-12,2-15.9,6.1c-4.4,4.5-6.9,11.3-6.7,18.7L508.8,382.7z M92.6,376.4h409.8
		l-0.2-8.2c-0.2-9,2.9-17.5,8.5-23.2c5.1-5.2,12.1-7.9,20.3-8l0.4,0c0.2,0,0.4,0,0.6,0l8.3,0.2V228.8l-9.1,0.2
		c-8.5,0-15.4-2.7-20.6-7.9c-5.6-5.7-8.7-14.2-8.5-23.2l0.2-8.2H92.2l0.4,8.4c0.4,9.2-2.6,17.9-8.2,23.8c-5.2,5.4-12.2,8.1-20.8,8.1
		h-8.1v108h8.1c20,0,29.1,15.7,29.1,30.3V376.4z"/>
	<g>
		<path fill="#F04E5E" d="M495.2,369.4H99.7v-1c0-18-11.3-37.4-36.2-37.4h-1v-93.9h1c10.5,0,19.4-3.6,25.9-10.3
			c7-7.3,10.7-17.9,10.2-29l0-1h395.6l0,1c-0.2,10.9,3.6,21.3,10.5,28.3c6.4,6.6,15.3,10.1,25.7,10.1c0.2,0,0.4,0,0.6,0l1.4-0.1v94
			l-1,0c-0.2,0-0.3,0-0.5,0c-0.1,0-0.3,0-0.5,0c-10.3,0-19.2,3.5-25.7,10.1c-6.9,7.1-10.7,17.4-10.5,28.3L495.2,369.4z M101.7,367.4
			h391.5c0-11.1,4-21.5,11.1-28.7c6.8-7,16.2-10.7,27.1-10.7l0,0l0-89.9h0c-10.9,0-20.2-3.7-27.1-10.7c-7.1-7.2-11.1-17.6-11.1-28.7
			H101.7c0.2,11.3-3.7,22-10.8,29.5c-6.6,6.9-15.7,10.7-26.3,10.9V329C89.6,329.5,101.3,348.9,101.7,367.4z"/>
	</g>
	<g>
		<path fill="#F04E5E" d="M76.9,199.8c0-7.3-6-13.3-13.3-13.3c-7.3,0-13.3,6-13.3,13.3c0,7.3,6,13.3,13.3,13.3
			C70.9,213.1,76.9,207.1,76.9,199.8z"/>
		<path fill="#F04E5E" d="M545.6,199.8c0-7.3-6-13.3-13.3-13.3s-13.3,6-13.3,13.3c0,7.3,6,13.3,13.3,13.3S545.6,207.1,545.6,199.8z"
			/>
		<path fill="#F04E5E" d="M76.9,368.4c0-7.3-6-13.3-13.3-13.3c-7.3,0-13.3,6-13.3,13.3c0,7.3,6,13.3,13.3,13.3
			C70.9,381.7,76.9,375.7,76.9,368.4z"/>
		<path fill="#F04E5E" d="M545.6,368.4c0-7.3-6-13.3-13.3-13.3s-13.3,6-13.3,13.3c0,7.3,6,13.3,13.3,13.3S545.6,375.7,545.6,368.4z"
			/>
	</g>
</g>
<path fill="#FFFFFF" d="M338.2,56.5c-4.9-3.4-14.7-11.9-14.7-11.9l-3.7-3.8l0.6-0.5c0,0-6.4-6.6-9.7-8.9l0,0l0,0
	c-1-0.7-1.7-1-1.9-0.7c-0.9,1.4-33,20.1-33,20.1s-31.2,13.7-40.5,32.4c0,0-12,37.8-7.6,48.1l12.8-17l-2.9,21.6l-8.1,5.9l3.3,12.4
	c0,0,10.8,21.5,54.1,21.3c27.2-0.1,39.7-10.7,45.2-18.6l34.2-6.4c9.4-5.5,9.2-21.6,9.2-21.6C383,79.3,343.1,59.9,338.2,56.5z"/>
<path fill="#EFACAD" d="M257.8,157.7c0-0.1,0.1-0.2,0.1-0.2c0.1-3.3-0.3-7-2.4-9.1c-1.1-0.7-2.2-1.4-3.2-2.2
	c-0.1-0.1-0.2-0.2-0.3-0.3c-0.5-0.1-1-0.3-1.3-0.8c0,0,0,0,0,0c-0.3,0-0.7,0.1-1,0.1c-2.6,0-5.1,0-7.7,0c-0.8,0.4-1.7,0.7-2.7,0.7
	c-3.1,0.1-5.2,1.6-6.6,3.8c0.1,1.1,0.3,2.1,0.3,2.8c0.1,2,0,4,0,6c2.4,4.6,6.3,5.8,12.3,5.4c2.4-0.2,7.4-0.3,10.6-2.2
	C256.6,160.2,257.4,159,257.8,157.7z"/>
<path fill="#EFACAD" d="M328.8,149.6c-0.3-0.2-0.6-0.4-0.9-0.5c-1.3-0.6-3.5-2.3-4.9-2.6c-1.6-0.4-3.2-0.1-4.7,0
	c-0.2,0.2-0.5,0.3-0.8,0.3c-1.1,0.1-2.3,0.3-3.4,0.4c-0.3,0.5-0.8,0.9-1.5,0.9c-1.9,0.1-3.8,0.5-5.5,1.1c-0.1,0.1-0.1,0.2-0.3,0.3
	c-1.1,1-1.7,2.2-2.3,3.5c-0.2,1-0.4,2-0.7,3c1.4,4.6,4.6,7.8,10.7,8.8c3.7,0.6,13.8,1.7,15.4-4.1c0.5-1.7,1.3-3,2.3-4
	C331.9,154,331,151.3,328.8,149.6z"/>
<path fill="#D7DF23" d="M341.9,69c-19.5-16.4-23.4-26.1-23.4-26.1c-2.2-5.5-4.3-5.8-7.9-1.9c-5.1,5.6-13,7.4-20.1,10.6
	c-8.5,3.9-22.6,8.9-30.2,14.5c-5.9,4.3-9.8,9.8-14,15.7c-6.1,8.7-5.3,19.4-6.9,30.2c3.6-2.1,8-2.8,12.3-2.2c0.2-0.5,0.5-0.9,1.2-1
	c0.3-0.1,0.5-0.2,0.8-0.3c1.7-1.9,3.7-3.3,6-4.2c0.5-0.7,0.9-1.3,1.1-2c0.3-1,1.2-1.4,2-1.3c0.6-0.8,1.8-1.2,2.7-0.3
	c0.7,0.7,1.3,1.4,1.9,2.1c1.3,0,2.2,0.8,3.5,1.3c2.9,1,6.9,3.1,11.3,1.3c0.9-1.1,1.8-2.3,2.8-3.3c1.7-1.7,4.3,0.9,2.6,2.6
	c-0.6,0.6-1.2,1.4-1.7,2.1c2.2,1,4.2,2.2,6,4c0.1,0.1,0.2,0.2,0.2,0.3c0.1,0,0.1-0.1,0.2-0.1c2.3-0.7,5,0,7.1-1
	c2.1-1,3.7-3.1,5.6-4.5c1.9-1.4,3.7,1.8,1.9,3.2c-0.4,0.3-0.9,0.6-1.3,1c2.5,0,5,0.4,7.5,1.2c2.1,0.6,3.9,1.6,5.6,2.7
	c0.1,0,0.1,0,0.2,0c2.7,0.1,6.1,1.6,8.1-0.8c1.6-1.8,4.2,0.8,2.6,2.6c-0.5,0.5-0.9,0.9-1.4,1.2c0.4,0.3,0.7,0.7,0.8,1.4
	c0.3,3.1,1.2,6,1.4,9.1c0.3,1.4,0.6,2.8,0.7,4.4c0.8,6.9,5,13.7,3.8,20.6c-0.1,0.5-0.3,0.9-0.7,1.1c-0.3,3.2-1,6.1-4,8.3
	c-2.8,2-6,2.6-9.3,2.7c-4.5,6.5-10.7,11.5-19,12.9c-1.7,0.3-3.4,0.5-5.2,0.6c2.1,1.1,4.3,2,6.5,2.6c3,0.8,6.2,1.3,9.3,1.4
	c14.3,0.6,29.1-5.9,39.3-15.6c4-3.8,7.4-8.2,10.1-13.4C376.2,125.4,363.8,87.5,341.9,69z"/>
<path fill="#F04E5E" d="M349.4,107.8c-1.3-5.4-3.3-10.7-5.7-15.3c-2.3-4.6-4.6-8.9-9.2-11.6c-3.4-2-6.7-3.9-9.8-6.3
	c-0.5-0.3-1-0.6-1.4-0.9c3,5.3,6.5,10.4,10.2,15.3c6.1,5.6,12,12.5,15.5,20.2c0.1,0.2,0.2,0.3,0.3,0.5
	C349.4,109,349.4,108.4,349.4,107.8z"/>
<path fill="#D7DF23" d="M379,163.7c0,0-14.8,5.4-27.3-6.8c-12.5-12.2-0.8,0-0.8,0l10.9-9.2l17.8,16"/>
<path fill="#D7DF23" d="M339.6,159c0,0-4,4.7-6.6,6.8c-2.7,2.1-19.7,11.8-37.4,12.9c0,0,8.7,0.6,17.9,0.6c15.4,0,29.7-12,29.7-12
	l2-4.3C345.2,163.1,339.6,162.1,339.6,159z"/>
<path fill="#D7DF23" d="M298.3,181.6l8.5,13.2c0,0,3,4.1,7.1,4.8c4.1,0.7,18,4.4,18.1,1.8c0.1-2.5-6.3-12.9-11.7-14.7
	C315,184.9,314.7,188.3,298.3,181.6z"/>
<path fill="#D7DF23" d="M272.3,183.2c-0.5,0.2-5.7,2.8-6.8,5.7c-1.1,2.9-6,10.5-7.1,13.5c0,0,0,0.1,0,0.1c0.8-0.2,1.5-0.4,2.3-0.7
	c0.4-0.3,0.8-0.6,1.3-0.8c4-2.5,9.8-5.2,12-9c2.2-3.8,6.3-10.4,6.3-10.4L272.3,183.2z"/>
<g>
	<path fill="#F04E5E" d="M320.3,152.8c-0.4,0.4-0.7,0.9-1,1.4c-0.8,1,0.2,1.4,1,1.7c0.1,0,1.3-1.8,1.1-2
		C321.1,153.5,320.7,153.1,320.3,152.8z"/>
	<path fill="#F04E5E" d="M314,153c-0.1-0.1-0.8,1-0.9,1.1c-0.4,0.5-0.1,1.1,0.4,1.2c0.6,0.2,0.8-0.2,1-0.7
		C314.9,154,314.7,153.4,314,153z"/>
	<path fill="#F04E5E" d="M309.9,152.5c0.7,1.3,2.2,0.3,1.8-1C311,151.5,309.2,151.3,309.9,152.5z"/>
	<path fill="#F04E5E" d="M307.6,152.9c-0.7,0-1.5,0.1-0.9,1c0.2,0.4,1.6,0.8,1.9,0.4c0.2-0.2,0.2-1.1,0-1.3
		C308.3,152.8,308,152.9,307.6,152.9z"/>
	<path fill="#F04E5E" d="M240.5,150.8c-0.3,0.4-0.6,0.8-0.9,1.1c-0.6,0.8,0.2,1.1,0.9,1.4c0.1,0,1.1-1.5,0.9-1.7
		C241.1,151.4,240.9,151,240.5,150.8z"/>
	<path fill="#F04E5E" d="M247.2,151.5c-0.1,0.5,0.2,2.2,0.6,2c0.5-0.2,1-0.5,1.5-0.8C248.9,153,248.4,149.7,247.2,151.5z"/>
	<path fill="#F04E5E" d="M251.6,151.3c0.5,0.9,1.6,0.2,1.3-0.7C252.4,150.6,251.2,150.4,251.6,151.3z"/>
	<path fill="#F04E5E" d="M244.7,148.6c-0.4,0-0.7,0.1-0.8,0.3c-0.2,0.4,0,1.2,0.4,1.6c0.5,0.5,1.2,0.1,1.6-0.3
		C246.2,149.9,245.1,148.6,244.7,148.6z"/>
	<path fill="#F04E5E" d="M297.3,146.8c-3.3,3.7-9.2,4.3-13.6,4.4c-6.8,0-16.7,1.4-21.2-3.3c-0.3-0.3-0.6-0.5-0.8-0.8
		c-0.7-0.2-1.4-0.4-2-0.6c-1.1,1.4-1.9,1.2-1.2,3.4c2.1,1.4,4.7,2.1,7.9,2.6c0,0.1,0,0.2,0,0.3c0,1.3,1.6,3,2.5,3.8
		c2,1.9,3.7,3.3,6.3,4.2c3.1,1,5.4,1.8,8.1,1c2.6-0.7,4.7-1.5,6.5-3.4c1.4-1.5,2.6-3.2,3.3-5.2c0.1-0.2,0.2-0.4,0.3-0.7
		c0.6-0.1,1.3-0.1,1.8-0.2c3.4-0.2,7.1,0.1,7-4.2c-1.3-0.4-2.6-0.8-3.7-1.5C298.2,146.7,297.8,146.7,297.3,146.8z M281.5,159.9
		c-1.9,0.3-5-0.3-7.1-1.5c-1.8-1-1.8-2.6-3.1-4.2c-0.3-0.4-0.5-0.7-0.7-1.1c0.5,0.1,1.1,0.1,1.7,0.2c0.8,0.1,2.1-0.2,2.9,0
		c0,0,0,0,0.1,0c4.7-0.4,9.6-0.2,14.4-0.2c0.1,0,0.2,0,0.3,0C288.4,156.6,285,159.4,281.5,159.9z"/>
	<path fill="#F04E5E" d="M315.7,129c1.5,0.1,2.7,0.8,4.1,1.2c-0.2-1.8-2-3.8-3.9-3.9c-1,0-1.9,0.4-2.8,0.8c0,0-0.1,0.1-0.3,0.2
		c-0.6,0.4-2,1.3-2.2,1.2C312.1,129.4,314.1,128.9,315.7,129z"/>
	<path fill="#F04E5E" d="M253.6,127.5c-0.4-0.5-1.1-1-1.7-1.3c-0.1-0.1-0.2-0.1-0.3-0.2c-0.9-0.4-1.8-0.9-2.8-0.8
		c-1.9,0.1-3.6,2.1-3.9,3.9c1.4-0.4,2.6-1.1,4.1-1.2C250.5,127.7,252.2,128.4,253.6,127.5z"/>
	<path fill="#F04E5E" d="M312.2,134.7c-1,0.3-1.8,0.8-2.6,1.4c-0.7,0.5-2.9,1.7-4.8,0.5l-0.7,0.9c0,0,1.1,2,2.9,2.4
		c-0.5,1.2-0.7,2.5-0.7,3.7c0.1,5.2,4.5,4.7,8.6,4.6c0.1,0,0.3,0,0.4,0c1.8-0.3,3.6-0.6,5.4-1c0.3-0.4,0.6-0.8,1-1.1
		c0.6-0.6,1.5-1.2,1.4-2.1c0-0.5,0.1-0.9,0.3-1.3C323.3,137.5,317.5,133.3,312.2,134.7z"/>
	<path fill="#F04E5E" d="M251.4,135.9c-1.6-0.8-3.2-1-4.7-0.7c-1.4,0-3.1-0.3-3.9-1.5l-0.3,1c0,0,0.2,1.2,1,2.2
		c-1.1,1-1.8,2.3-2.1,3.8c-0.8,4.3,2.3,5.2,5.4,6c1,0.2,2,0.5,2.9,0.7c0,0,0.1,0,0.1,0c1.2,0,2.5,0.5,3.3-0.5
		c0.7-0.9,1.4-1.7,1.8-2.8C255.3,141.3,254.3,137.4,251.4,135.9z"/>
</g>
<path fill="#EFACAD" d="M269.6,143.2c2.1-1.4,5.3-2.1,7.8-2.4c2.7-0.4,5.4-0.1,7.8,1.2c1.5,0.8,3,1.2,4.6,1.5
	c0.6,0.1,1.4-0.1,1.9,0.6c0.3,0.4-2,1.2-2.2,1.2c-4.8,1-9.6-1.4-14.5-0.8c-2,0.2-4.3,0.4-6.4,0.6
	C266.4,145.4,268.9,143.7,269.6,143.2z"/>
<path fill="#F04E5E" d="M274.7,182.9c-0.5,0.1-6.8,2.7-9.1,7.4c-2.2,4.7-2.3,6.4,1,2.8C270,189.6,274.7,182.9,274.7,182.9z"/>
<path fill="#FFFFFF" d="M245.7,137c-0.5,0.4-1,0.9-1.5,1.3c-1.1,0.9-0.1,1.6,0.8,2.1c0.1,0.1,1.8-1.8,1.7-2
	C246.4,138,246.1,137.4,245.7,137z"/>
<path fill="#FFFFFF" d="M310.8,138c-0.4,0.6-0.7,1.3-1.1,1.9c-0.8,1.3,0.5,1.7,1.6,1.9c0.1,0,1.3-2.5,1-2.7
	C311.9,138.8,311.4,138.3,310.8,138z"/>
<path fill="#F04E5E" d="M303.7,185.2c0,0,3.4,7.8,6.3,9.6c2.8,1.8,11.2,4.7,17.8,4.9c0,0,3.4-0.6-1.1-2c-4.4-1.4-5.7-1.6-9.7-3.8
	C313,191.6,303.7,182,303.7,185.2z"/>
<g>
	<path fill="#F04E5E" d="M323.3,48.3c-0.1-0.1-0.2-0.2-0.3-0.3C323,48,323.1,48.1,323.3,48.3z"/>
	<path fill="#F04E5E" d="M390.5,161.4c-1.2-1.7-11.4-2.5-16-5.2c0,0,8,1.1,11.7,0l-0.6-2.5c0,0-5.1,0.3-11.2-2.1
		c1.2-2.4,2.3-4.9,3.7-7.2c0,0,0.1-0.1,0.1-0.1c2.5-9,3.2-20,2.3-29.5c-0.3-2.9-1.3-5.3-1.3-7.2c0-0.9-0.2-2-0.4-3.1
		c-0.2-0.8-0.5-1.7-0.7-2.5c-1.5-4.5-4.1-10-5.6-14.9c-0.7-1.4-1.4-2.7-2.2-4.1c-0.3-0.1-0.6-0.2-0.8-0.4c-0.9-2-2-3.8-3-5.7
		c-4.9-5.5-10.3-10.6-16.3-14.8c-7.2-4.9-13-9.9-18.7-15.8c-3.7-2.4-5.7-6-8.2-8.7c0.1,0,0.1-0.1,0.1-0.2c-1.9-1.9-3.7-3.7-5.2-5.9
		c-0.1-0.1-0.1-0.2-0.1-0.3c-1.6-2.1-2.8-4.7-5-5.5c-6.8-2.6-12.8,4.2-16.1,7.2c0,0,0,0,0,0.1c-1.7,1.6-4.1,4-7.2,7.1
		c-5.9,5.9-27.9,10.1-40.8,23.8c-3.3,3.3-9.8,11.1-10.9,13.1c-0.2,0-3.7,4.6-5.3,7c-4.9,7.3-7.1,17.8-8.1,26.3c-0.6,5-0.7,10-0.2,15
		c0.3,2.9,0.8,5.8,1.3,8.6c-1,2.3-2.6,4.8-4.6,5.9v2l2.9-1.4c0,0,0.8,3.7-5.7,7.2c-6.5,3.5,4.5,4.8,9.1,1.2c0.5,2.8,1.3,5.4,2.6,7.9
		c3,5.6,9.4,9.7,14.8,12.7c1.5,0.8,3,1.6,4.5,2.5c1.9,1.1,4,2,6.2,2.7c2.2,0.6,4.2,1.2,6.4,1.9c1.3,0.5,2.9,0.5,4.2,0.8
		c0.3,0.1,3.3,1.1,3.5,1c-0.7,0.6-4,2-4.6,2.6c-1,0.9-1.4,2.1-2.1,3.1c-1,1.6-2.4,2.6-3.1,4.4c-0.6,1.6-1.2,3.2-1.9,4.7
		c-1.5,3.1-2.9,6.4-3.5,9.8c-0.1,0.5-0.5,6.3-0.2,6.3c0.3-0.1,0.5-0.1,0.9,0c4.6,1.3,13.7-6.8,17.6-9.2c1.4-0.9,2.7-1.8,3.7-2.8
		c0.3-0.3,0.5-0.5,0.8-0.8c3-3.2,4.8-7,7.1-11.4c0.5-0.9,1.6-1.8,2.3-1.5c0.4-0.4,0.9,0.1,1.6,0.3c0.3,0.1,0.5,0.2,0.7,0.3
		c0.1,0,0.2,0,0.4,0c6.2,1.9,7.1,9.6,11.4,13.8c0.4,0.4,0.9,0.8,1.4,1.2c2.8,1.9,5.9,3.6,9.2,4.9c2,0.2,3.7,0.8,6.1,1.3
		c0.2,0.3,0.4,0.6,0.6,0.9c3,0.8,6.1,1.2,9.2,1.3c0,0,0.1,0,0.1,0c0.3,0,0.6,0,0.9,0c1.6-0.2,3.6-1,4.9-0.4c0.8-0.1,1.7-0.3,2.5-0.6
		c0-0.3,0.2-0.6,0.4-0.7c1.3-0.3,1-0.3,1,0c0.1-0.1,0.3-0.2,0.4-0.3c1.2-5.3-3.1-9.8-5.2-15.2c0-0.1-0.1-0.1-0.2-0.2
		c-0.5-1.3-1.2-2.6-2.4-3.4c-0.2-0.1-0.3-0.2-0.4-0.4c-1.5-0.8-2.6-2.6-3.5-4.2c6.9-1.2,12.9-4.1,18.6-6.5c2.8-2.3,5.8-4.5,9-6.3
		c1.2-0.7,2.4-0.7,3.4-0.2c1.5-0.7,2.8-1.6,4.1-2.6l5.8,0.7c0,0,7.6,0.5,7.2-1c-2.3-0.6-4.5-1.2-6.6-2.3l-3.1-0.6
		c-0.5,0.1-1.1,0-1.6-0.3l-1.7-0.4c0,0-8.9-5-11.5-8c0,0-8-11.6-10.5-18.7l0-0.1c-0.2-2.3,3.4-2.2,3.7,0.1c0,0.4,0.1,0.7,0.2,1.1
		c0.1,0.1,0.2,0.2,0.2,0.3c3,5,5.6,10.2,10.2,13.6c-3.2-6.9-6.7-13.5-9-20.9c-1.9-6.4-5.2-12.4-5.8-19.1c-0.7-1.1-1.4-2.2-2.2-3.3
		c-1.5-1.4-3-3-3.9-4.8c-1.6-1-3.1-2.1-4.3-3.5c-0.1,0-0.2-0.1-0.3-0.2c-0.1,0-0.1,0-0.2-0.1c-0.2,0.3-0.4,0.5-0.6,0.8
		c1.6,2.6,2.4,5.5,2,8.2c0.6,2-0.2,4.4-1.2,6c0,0.1-0.1,0.1-0.2,0.2c-0.1,0.2-0.2,0.5-0.3,0.7c-0.2,0.5-0.5,0.9-0.9,1.1
		c-1.2,1.5-4.4,0.7-4-2c-3.7,2.7-9.7,1.5-13-2.4c-1.4-1.7-2.6-1.8-3.8-1.4c0,0.4,0,0.7-0.1,1.1c-0.4-0.1-0.7-0.4-0.9-0.6
		c-0.4,0.3-0.9,0.6-1.3,0.9c0.2,0.7,0.1,1.5-0.3,1.9c-0.3-0.2-0.7-0.4-1.3-0.4c0-0.2,0-0.4,0-0.5c-0.7,0.4-1.5,0.6-2.4,0.6
		c-0.2,0-0.3,0.1-0.5,0c-4.8-0.6-8.8-2.8-10.7-7.4c-3.7,3.3-7.4,5-12.7,3.5c-1.7-0.5-10-7.2-10.5-6.7c-2.2,2.3-4.6,4.6-7,6
		c-0.3,0.2-0.5,0.5-0.8,0.6c0-0.1-0.1-0.1-0.1-0.2c-2.6,1.2-5.4,1.1-8.1-1.2c-0.2,0-0.4-0.1-0.6-0.1c-3,1.3-6.9-1.1-6-4.1
		c0.1-5.8,2.7-12.1,7-16.5c-0.2-0.3-0.4-0.5-0.7-0.8c-2.2,2.1-4.2,4.7-6.3,7.1c-1.4,1.7-2.9,3.5-4.1,5.5c-0.8,1.9-1.5,3.9-1.7,5.9
		c0,0.1,0,0.1-0.1,0.2c0.2,0.3,0.4,0.6,0.3,1.1c-0.1,0.9-0.4,1.7-0.8,2.5c-0.4,0.7-0.8,1.4-1,2.2c-0.1,2-0.4,3.8-1.3,5.6
		c-0.6,3.9-0.5,7.5-3.2,9.2c0.2-3.1-0.4-5.3-0.4-8.2c-0.3-0.4-0.4-0.9-0.2-1.4c0.4-1.5,0.7-3.1,1.1-4.6c-0.1-2,0-3.8,0.4-5.6
		c-0.1-0.3-0.2-0.7-0.1-1.1c0.4-3.4,1.6-6.5,2.9-9.7c0.9-2.2,1.6-4.4,2.8-6.4c0.9-1.5,2.1-2.9,2.8-4.5c0.7-1.4,10.3-13.5,11.2-14.5
		c1.2-2.8,6.4-6.1,10.5-8.6c2.7-1.6,5.2-3.2,7.8-4.6l0.1,0l10.7-4.4c1.1-0.3,2.3-0.6,3.5-0.8c0.3-0.2,0.7-0.4,1-0.6
		c1.6-0.7,3.4-1.5,5.2-2.2c0.1-0.1,0.3-0.1,0.4-0.2c2.7-1.9,5.1-4.1,7.8-5.9c2.6-2.9,5.6-5.9,9-6c6-0.9,9.1,3.1,12.7,7.3
		c0.1,0.1,0.2,0.2,0.3,0.4c0.3,0.2,0.6,0.4,0.9,0.8c0.7,1,1.5,1.9,2.3,2.8c0-0.1,0.4,0.2,0.5,0.7c3.6,3.9,8,7.2,12.5,10.2
		c1,0.4,1.9,0.9,3,1.3c0.6,0.8,1.3,1.4,2,2c5.2,3.4,10.3,7,14.4,11.6c0.2,0.2,0.3,0.5,0.4,0.7c0.4,0.4,0.7,0.9,0.8,1.4
		c2.5,3.3,4.9,6.7,6.9,10.2c0.9,0.5,1.8,2,1.8,3.1c4.9,9.1,7.8,18.9,7.1,29.8c0,0.7-0.2,1.3-0.5,1.8c0.3,4.3,0.9,10.7-1.2,14.5
		c-0.3,4.2-1.2,8.6-4.8,11.1c-1.1,0.7-2.3-0.1-2.6-1.2c-0.5-0.1-1-0.3-1.3-0.9c-3.9-9.6-3.2-17.2-4.9-22.5c-0.4-0.5-0.9-1.1-1.4-1.6
		c0.1,2.9-0.4,5.7-0.6,8.6c0.1,1.3-0.1,2.7-0.4,4c0.6,5.9,1.3,11.7,3.5,17.2c0.1,0.3,0.1,0.5,0.1,0.8c0.2,0.2,0.4,0.5,0.5,0.8
		c0.3,0.1,0.6,0.3,0.8,0.6c2.4,3.2,5.4,6.8,8.9,8.9c2.4,1.4,5,1.9,7.7,2.5c4,0.6,8.9,0.9,14.4,0.5
		C390.5,163.8,391.8,163.1,390.5,161.4z M280,110.6c0.8-0.7,0.5,0,1.7,0C282,112.3,279.7,112.3,280,110.6z M269.8,111.1
		c1.1,0,1.6,0.6,1.7,1.7c-0.3,0.4-1.2,0.3-1.3,0.9C269.3,113.6,270,111.8,269.8,111.1z M262.6,107.3c1,0.6-0.7,2.1-1.7,2.1
		C260.7,107.9,262.2,108.1,262.6,107.3z M233.2,143.7c1.8-2.6,4.3-4.6,6.4-5.5c0.4-6.1,1.8-12.2,2.7-17.8c0-0.1,0-0.3,0.1-0.4
		c0.3-2,0.5-4,0.6-5.9c0.5-0.5,2.4,1.5,2.4,2.8c0.2,0,0.3,0.1,0.4,0.2c0.6-0.1,1.2,0,1.9,0.3c3.8,1.8,6.9,2.3,10.4-0.3
		c0.9-0.7,1.7-0.8,2.5-0.6c0.2-0.1,0.4-0.1,0.7-0.1c1-1.2,1.7-2.6,2.5-4c5.1,4.9,14.3,5.1,22.1,2.5c1.6,0.8,2.8,1.3,4.8,1.8
		c0.5-0.2,1-0.3,1.6,0.1c0.3,0.2,0.7,0.3,1.1,0.4c0.2,0,0.5,0,0.8,0.1c0.4,0.1,0.8,0.2,1.2,0.2c0.2,0,0.5,0,0.8,0c0,0,0-0.1,0-0.1
		c0.6-0.1,1.1,0,1.6,0c0.4,0,0.8-0.1,1.2-0.1c0.3,0,0.6,0.1,0.8,0.2c1-0.1,1.9-0.4,3-0.7c0.5-0.2,0.8-0.1,1.2-0.1
		c0.4-0.2,1-0.3,1.6-0.3c1,0,1.7,0.4,2.3,0.9c3.6,4.6,6.4,4.3,11.6,4c2.3,0.1,4-1.1,4.7-1.3c0.6-0.2,1.1-0.2,1.6-0.2
		c0.7-0.3,1.5-0.4,2.2-0.1c0.2-0.1,0.4-0.1,0.6-0.2c0,0.1,0,0.3-0.1,0.4c0.6,0.4,1.1,1.1,1.1,2c0.1,2,0.8,14.3,0.6,17.8
		c0.2,0.4,4.3,4.6,2.7,12.5c-4.5,11.6-21.2,14.9-33,17.3c-1.6,0.6-4.8,0.6-6.5,0.8c-11.8,1.7-28.1-1.8-39.9-5.5
		c-6.5-2-13.7-6.8-17-10.2C232.8,151.2,231.6,149.1,233.2,143.7z"/>
</g>
</svg>
